<svg xmlns="http://www.w3.org/2000/svg" viewBox="0 0 220 220"><path fill="#00694C" d="M110 0c-60.8 0-110 49.2-110 110s49.2 110 110 110 110-49.2 110-110-49.2-110-110-110zm69.8 181.6l-2.6 2.5c-4.1 3.8-8.6 7.2-13.3 10.2-.7.4-1.4.9-2 1.3-3.4 2.1-7 4-10.7 5.6-2.2 1-4.5 1.9-6.8 2.8-1.5.6-3.1 1.1-4.6 1.6-1.6.5-3.1.9-4.7 1.3-2.4.6-4.8 1.1-7.3 1.6-5.7 1-11.7 1.6-17.7 1.6s-12-.5-17.7-1.6c-3.3-.6-6.5-1.3-9.7-2.2-1.6-.4-3.1-.9-4.7-1.5-2.3-.8-4.6-1.7-6.9-2.6-.7-.3-1.5-.6-2.2-1-10.3-4.7-19.7-11.1-27.8-18.8-14.1-13.4-24.3-31-28.6-50.7v-.1c-.5-2.3-.9-4.6-1.3-6.9v-.3l-.3-2.2v-.4l-.1-.5-.1-.5-.1-1.4-.1-.7-.1-1.2v-.9l-.1-.9-.1-1.6v-8.399999999999999c0-.5 0-1.1.1-1.6l.1-.9v-.9l.1-1.2.1-.7.1-1.4.1-.5.1-.5v-.4l.3-2.2v-.3c.3-2.3.8-4.6 1.3-6.9v-.1c.5-2.3 1.1-4.6 1.8-6.8 12.1-41.2 50.4-71.3 95.7-71.3s83.6 30.1 95.9 71.4c.5 1.6.9 3.2 1.3 4.8l.5 2.1v.1c.5 2.3.9 4.6 1.3 6.9v.3l.3 2.2v.4l.1.5.1.5.1 1.4.1.7.1 1.2v.9l.1.9.1 1.6v8.399999999999999c0 .5 0 1.1-.1 1.6l-.1.9v.9l-.1 1.2-.1.7-.1 1.4-.1.5-.1.5v.4l-.3 2.2v.3c-.3 2.3-.8 4.6-1.3 6.9v.1c-.5 2.3-1.1 4.6-1.8 6.8-5 16.4-14 31.1-26.1 42.9z"/><path fill="#30A480" d="M10.2 104.2l-.1 1.6v-.4l.1-1.2zM11.8 128.9l-.2-.8c-.2-1.1-.4-2.1-.5-3.2v-.2c.3 2.3.8 4.6 1.3 6.9l-.1-.3-.5-2.4zM10.3 102.9v.5-.2c-.1 0 0-.3 0-.3zM207.1 86.2c-.4-1.6-.8-3.2-1.3-4.8.5 1.6.9 3.2 1.3 4.8zM209.8 115.8l.1-1.6v.4l-.1 1.2zM10.7 98.1l-.1.5v-.2l.1-.3zM10.6 99.2l-.1 1.4.1-.8c-.1 0 0-.6 0-.6zM64 156c-5-5-9.3-10.9-12.4-17.4h-37.5c-.5-1.6-.9-3.2-1.3-4.8l-.3-1.3-.2-.8c4.4 19.7 14.5 37.2 28.6 50.7-.6-.6-1.2-1.1-1.7-1.7l24.8-24.7zM11 95.6l-.3 2.2.2-1.5.1-.7zM10.1 114.2c0 .5 0 1.1.1 1.6l-.1-1.2v-.4zM209.7 117.1v-.5.2.3zM10.4 101.3l-.1 1.2.1-.7v-.5zM10.3 117.5l.1 1.2v-.6l-.1-.6zM209.7 102.5l-.1-1.2v.6l.1.6zM209.9 105.8c0-.5 0-1.1-.1-1.6l.1 1.2v.4zM209.3 97.8l-.3-2.2.1.7c0 .5.1 1 .2 1.5zM209.8 103.4v-.5.3.2zM10.7 122.2l.3 2.2-.1-.7c0-.5-.1-1-.2-1.5zM209.6 100.6l-.1-1.4.1.6v.8zM209.4 98.7l-.1-.5v.3l.1.2zM207.6 88.3l-.5-2.1c.1.4.2.8.3 1.3l.2.8zM208.2 91.1l.2.9c.2 1.1.4 2.1.5 3.2v.2c-.3-2.3-.8-4.6-1.3-6.9l.1.3c.2.7.3 1.5.5 2.3zM10.2 116.6v.5-.3-.2zM10.4 119.4l.1 1.4-.1-.6c.1 0 0-.8 0-.8zM11.6 91.9l.2-.8.5-2.4.1-.3c-.5 2.3-.9 4.6-1.3 6.9v-.2c.2-1 .3-2.1.5-3.2zM10.6 121.3l.1.5v-.3l-.1-.2zM168.4 138.6c-3.2 6.5-7.4 12.3-12.4 17.4l24.7 24.7-.9.8c12-11.7 21.1-26.5 26-43l-37.4.1zM68.8 201.2c-10.3-4.7-19.7-11.1-27.8-18.8 8.1 7.7 17.5 14.1 27.8 18.8zM161.9 195.5c-3.4 2.1-7 4-10.7 5.6 3.6-1.6 7.2-3.5 10.7-5.6zM12.9 86.2c.4-1.6.8-3.2 1.3-4.8-.7 2.3-1.3 4.5-1.8 6.8l.2-.8c0 .1.3-1.2.3-1.2zM77.9 204.7c-2.3-.8-4.6-1.7-6.9-2.6 2.3 1 4.6 1.9 6.9 2.6zM92.3 208.4c-3.3-.6-6.5-1.3-9.7-2.2 3.2.9 6.4 1.7 9.7 2.2zM110 45c25.6 0 47.8 14.9 58.4 36.4h37.5c-12.3-41.3-50.6-71.4-95.9-71.4s-83.6 30.1-95.9 71.4h37.5c10.6-21.5 32.8-36.4 58.4-36.4zm47.8.5c-.1-.3-.4-.9-1-1.9-.5-.9-.8-1.6-1-2.2s-.1-1.2 0-1.7.4-1.1.8-1.7c.8-1.1 1.8-1.6 3-1.6s2.5.5 3.8 1.4c1.2.9 2.2 2 3 3.5l-2.7 1.7c-.7-1.3-1.5-2.2-2.2-2.8-.4-.3-.8-.4-1-.4s-.5.1-.7.3c-.2.2-.2.5-.1.9.1.3.5 1.1 1.2 2.4.7 1.2 1 2.2 1 3 0 .8-.3 1.6-.8 2.4-.5.7-1.2 1.2-1.9 1.5s-1.6.3-2.5.1c-.9-.2-1.8-.6-2.7-1.3-.8-.6-1.4-1.1-1.8-1.6s-.8-1.1-1.2-1.8l2-2.8c.4.7.8 1.4 1.3 2.1s1 1.2 1.6 1.5c.5.3.9.5 1.2.5.3 0 .6-.1.8-.4.1-.2.2-.3.2-.5l-.3-.6zm-14.7-6.9c.6.5 1.2 1 1.8 1.3.5.3.9.4 1.3.3.3-.1.6-.2.7-.5.1-.2.1-.4.1-.5 0-.2-.1-.4-.3-.6-.1-.2-.6-.8-1.3-1.7-.6-.8-1.1-1.5-1.3-2-.2-.6-.3-1.1-.3-1.7 0-.6.2-1.2.5-1.8.6-1.2 1.5-1.9 2.7-2.1 1.2-.2 2.5 0 4 .8 1.3.7 2.5 1.6 3.6 3l-2.4 2.1c-.9-1.1-1.8-1.9-2.7-2.4-.4-.2-.8-.3-1.1-.3-.3.1-.5.2-.6.4-.1.2-.1.5 0 .9s.7 1 1.6 2.1c.8 1 1.3 2 1.5 2.7.1.8 0 1.6-.4 2.5-.4.8-1 1.4-1.7 1.8-.7.4-1.5.6-2.5.6-.9 0-1.9-.3-2.9-.8-.8-.4-1.5-.8-2-1.3-.5-.4-1-.9-1.5-1.5l1.5-3.1c.5.6 1 1.3 1.7 1.8zm-14.4-9.1c.4-1.4 1.1-2.6 1.9-3.5s1.9-1.5 3-1.8c1.2-.3 2.4-.2 3.8.2 1.5.4 2.8 1.2 3.9 2.2l-2 2.6-1.3-1.1s-1-.6-1.6-.7c-.9-.3-1.7-.1-2.4.5s-1.3 1.5-1.6 2.8c-.8 2.6-.2 4.2 1.8 4.9.6.2 1.2.3 1.8.3s1.2 0 1.9-.1l-.9 3.1c-1.3.2-2.7 0-4.1-.4-2.1-.6-3.5-1.7-4.2-3.2-.7-1.7-.7-3.6 0-5.8zm-5.4-8.4l3.3.5-7.3 13.8-3.3-.4 7.3-13.9zm-14.7-.7l.2 11.2 5.5-.1.1 3.1-9.4.2-.2-14.3c-.1-.1 3.8-.1 3.8-.1zm-21.3 2.8l5.1 9.2h.1l.6-10.5 5-1.1 3.1 13.9-3.5.8-1.4-6.1c-.1-.3-.1-.7-.2-1.1-.1-.4-.2-1.3-.5-2.9h-.1l-.6 10.6-3.6.8-5.1-9.4h-.1c.5 1.7.9 3 1.1 3.9l1.4 6-3.3.8-3.1-13.9c.1.1 5.1-1 5.1-1zm-10.2 3.2l1.3 2.9-3.2 1.5 4.7 10.1-3.5 1.6-4.7-10.1-3.2 1.5-1.3-2.9 9.9-4.6zm-21.3 12.2l3.1 4.3 3.6-2.6-3.1-4.3 3.1-2.3 8.4 11.6-3.1 2.3-3.4-4.7-3.6 2.6 3.4 4.7-3.2 2.2-8.4-11.6c0 .1 3.2-2.2 3.2-2.2zM209.4 120.8l.1-1.4-.1.8v.6zM177.2 184c-4.1 3.8-8.6 7.2-13.3 10.2 4.7-3 9.2-6.4 13.3-10.2zM135 206.9c-2.4.6-4.8 1.1-7.3 1.6 2.5-.5 4.9-1 7.3-1.6zM209 124.4l.3-2.2-.2 1.5-.1.7zM207.1 133.8c-.4 1.6-.8 3.2-1.3 4.8.7-2.2 1.3-4.5 1.8-6.8l-.2.8-.3 1.2zM208.4 128.1l-.2.9-.5 2.4-.1.3c.5-2.3.9-4.6 1.3-6.9v.2c-.2.9-.3 2-.5 3.1zM10 110v-2.9 2.9zM10 112.9v-2.9 2.9zM210 107.1v2.9-2.9zM210 110v2.9-2.9zM209.3 121.9l.1-.5v.2c-.1-.1-.1.3-.1.3zM209.6 118.7l.1-1.2-.1.7v.5z"/><path fill="#228063" d="M156 156c-11.8 11.8-28 19-46 19s-34.2-7.3-46-19l-24.7 24.7 1.7 1.7c8.1 7.7 17.5 14.1 27.8 18.8l2.2 1c2.2.9 4.5 1.8 6.9 2.6 1.5.5 3.1 1 4.7 1.5 3.2.9 6.4 1.6 9.7 2.2 5.7 1 11.7 1.6 17.7 1.6s12-.5 17.7-1.6c2.5-.4 4.9-1 7.3-1.6 1.6-.4 3.2-.9 4.7-1.3 1.6-.5 3.1-1 4.6-1.6 2.3-.8 4.6-1.8 6.8-2.8 3.7-1.7 7.3-3.6 10.7-5.6.7-.4 1.4-.8 2-1.3 4.7-3 9.2-6.5 13.3-10.2.9-.8 1.7-1.6 2.6-2.5l.9-.8-24.6-24.8zm-62.8 32.3c-.4 1.5-1.2 2.6-2.4 3.2s-2.5.6-4.2.1l-1-.3-1.3 4.6-3.7-1.1 3.9-13.7 4.7 1.4c1.7.5 2.9 1.3 3.6 2.3.7.9.8 2.1.4 3.5zm11.6 11.2l-.5-2.7-4.6-.4-1 2.6-4.2-.4 5.9-13.9 5.1.5 3.4 14.7-4.1-.4zm15.4-.4l-3.8.4-1-11.1-3.5.3-.3-3.1 10.8-1 .3 3.1-3.5.3 1 11.1zm16.8-3.6l-1.6-5.6-4.3 1.2 1.6 5.6-3.7 1.1-4-13.7 3.7-1.1 1.5 5.1 4.3-1.2-1.5-5.1 3.7-1.1 4 13.7-3.7 1.1zM88.3 185.5l-1-.3-.9 3.2.7.2c.6.2 1 .1 1.5-.1.4-.2.7-.6.9-1.2.2-.9-.1-1.6-1.2-1.8zM103.1 189.1c-.1-.8-.2-1.4-.2-1.8-.1.3-.3.9-.5 1.6-.2.7-.8 2.2-1.6 4.4l3 .3-.4-2.4c0-.5-.2-1.2-.3-2.1zM209.9 114.2v-.8.8zM11.8 128.9l-.2-.8.2.8zM209.5 99.8l-.1-.6-.1-.5v-.2c.1.4.1.8.2 1.3zM209.7 118.1l.1-.7v-.7l-.1 1.4zM209.9 106.3v-.9.9zM170.5 133.8c-.6 1.6-1.3 3.2-2.1 4.8h37.5c.5-1.6.9-3.2 1.3-4.8h-36.7zM12.9 133.8c.4 1.6.8 3.2 1.3 4.8h37.5c-.8-1.6-1.5-3.1-2.1-4.8h-36.7zM208.2 128.9l.2-.9-.2.9zM209.3 121.5v-.2l.1-.5.1-.6c-.1.5-.1.9-.2 1.3zM207.4 132.5l.2-.8v-.1l.1-.3-.3 1.2zM209.8 103.2v-.7l-.1-.7c0 .5 0 .9.1 1.4zM10.7 98.5v.2l-.1.5-.1.6c.1-.5.1-.9.2-1.3zM10.1 105.8v.8-.8zM10.2 116.8v.7l.1.7c0-.5 0-.9-.1-1.4zM10.3 101.9l-.1.7v.7l.1-1.4zM10.1 113.7v.9-.9zM12.3 131.3l.1.3v.1l.2.8-.3-1.2zM10.9 123.7l.1.7v.5l-.1-1.2zM10.5 120.2l.1.6.1.5v.2c-.1-.4-.1-.8-.2-1.3zM170.5 86.2h36.6c-.4-1.6-.8-3.2-1.3-4.8h-37.5c.9 1.6 1.5 3.2 2.2 4.8zM207.7 88.7l-.1-.3v-.1l-.2-.8.3 1.2zM11.1 95.1v.5l-.1.7c-.1 0 .1-1.2.1-1.2zM209.1 96.3l-.1-.7v-.5l.1 1.2zM208.4 91.9l-.2-.9.2.9zM49.5 86.2c.6-1.6 1.3-3.2 2.1-4.8h-37.5c-.5 1.6-.9 3.2-1.3 4.8h36.7zM11.8 91.1l-.2.8.2-.8zM12.6 87.5l-.2.8v.1l-.1.3.3-1.2zM208.9 124.9v-.5l.1-.7-.1 1.2z"/><path fill="#70C297" d="M11.1 124.9l.5 3.2.2.8.5 2.4.3 1.2.3 1.3h36.7c.6 1.6 1.3 3.2 2.1 4.8 3.1 6.4 7.3 12.3 12.3 17.4 11.8 11.8 28 19 46 19s34.2-7.3 46-19c5-5 9.3-10.9 12.4-17.4.8-1.6 1.5-3.1 2.1-4.8h36.7l.3-1.3.3-1.2.5-2.4.2-.9c.2-1.1.4-2.1.5-3.2l.2-1.2.2-1.5v-.7l.1-1.3.1-.8.1-.7v-.6l.1-1.3v-.2l.1-.9.1-1.2v-9.000000000000002l-.1-1.2-.1-.9v-.2l-.1-1.3v-.6l-.1-.7-.1-.8-.1-1.3v-.7l-.2-1.5-.2-1.2-.5-3.2-.2-.9-.5-2.4-.3-1.2-.3-1.3h-36.7c-.6-1.6-1.3-3.2-2.1-4.8-10.6-21.3-32.8-36.2-58.4-36.2s-47.8 14.9-58.4 36.4c-.8 1.6-1.5 3.1-2.1 4.8h-36.6l-.3 1.3-.3 1.2-.5 2.4-.2.8c-.2 1.1-.4 2.1-.5 3.2l-.2 1.2-.2 1.5v.7l-.1 1.3-.1.8-.1.7v.6l-.1 1.3v.2l-.1.9-.1 1.2v9.000000000000002l.1 1.2.1.9v.2l.1 1.3v.6l.1.7.1.8.1 1.3v.7l.2 1.5c.1 0 .2 1.2.2 1.2zm172-6.4c0-.2.1-.4.2-.6l7.9-7.9-7.9-7.9c-.2-.2-.2-.4-.2-.6v-3.3c0-.2.1-.4.2-.6.2-.2.4-.2.6-.2.2 0 .4.1.6.2l11.8 11.8c.3.3.3.8 0 1.2l-11.8 11.8c-.2.2-.4.2-.6.2-.2 0-.4-.1-.6-.2-.2-.2-.2-.4-.2-.6v-3.3zm-73.1-63.5c30.4 0 55 24.6 55 55 0 21.4-12.2 39.9-30 49l-.8.4-.7.3-2.1 1-.3.1-2 .8-.8.3c-.5.2-1 .4-1.6.5l-.8.2-2.2.6-.7.2-1.7.4-.9.2-.6.1c-3.2.6-6.6.9-10 .9-30.4 0-55-24.6-55-55s24.8-55 55.2-55zm-86.3 54.4l11.8-11.8c.2-.2.4-.2.6-.2.2 0 .4.1.6.2.2.2.2.4.2.6v3.3c0 .2-.1.4-.2.6l-7.9 7.9 7.9 7.9c.2.2.2.4.2.6v3.3c0 .2-.1.4-.2.6-.2.2-.4.2-.6.2-.2 0-.4-.1-.6-.2l-11.8-11.8c-.3-.3-.3-.9 0-1.2z"/><path fill="#00694C" d="M131.5 160.7l-.3.1.3-.1zM134.2 159.4l-.7.3.7-.3zM121.5 163.8l-.9.2.9-.2zM123.9 163.2l-.7.2.7-.2zM129.2 161.5l-.8.3.8-.3zM126.9 162.4l-.8.2.8-.2zM110 165c3.4 0 6.8-.3 10-.9v-19.1h-45c-2.8 0-5-2.2-5-5v-55c0-2.8 2.2-5 5-5h70c2.8 0 5 2.2 5 5v55c0 2.8-2.2 5-5 5h-10v14c17.8-9.1 30-27.6 30-49 0-30.4-24.6-55-55-55s-55 24.6-55 55 24.6 55 55 55z"/><path fill="#30A480" d="M183.3 122.4c.2.2.4.2.6.2.2 0 .4-.1.6-.2l11.8-11.8c.3-.3.3-.8 0-1.2l-11.8-11.8c-.2-.2-.4-.2-.6-.2-.2 0-.4.1-.6.2-.2.2-.2.4-.2.6v3.3c0 .2.1.4.2.6l7.9 7.9-7.9 7.9c-.2.2-.2.4-.2.6v3.3c0 .2.1.4.2.6zM23.7 110.6l11.8 11.8c.2.2.4.2.6.2.2 0 .4-.1.6-.2.2-.2.2-.4.2-.6v-3.3c0-.2-.1-.4-.2-.6l-7.9-7.9 7.9-7.9c.2-.2.2-.4.2-.6v-3.3c0-.2-.1-.4-.2-.6-.2-.2-.4-.2-.6-.2-.2 0-.4.1-.6.2l-11.8 11.8c-.3.3-.3.9 0 1.2z"/><path fill="#C5E3C4" d="M64.1 50.2l-3.4-4.8 3.7-2.6 3.4 4.7 3.1-2.2-8.4-11.6-3.1 2.3 3.1 4.3-3.6 2.6-3.1-4.3-3.2 2.3 8.4 11.5zM71.7 32.4l4.7 10.1 3.5-1.7-4.7-10 3.2-1.5-1.3-2.9-9.9 4.6 1.4 2.9zM88.7 37.5l-1.4-6c-.2-.9-.6-2.3-1.1-3.9h.1l5.1 9.4 3.6-.8.6-10.6h.1c.3 1.5.4 2.5.5 2.9.1.4.2.7.2 1.1l1.4 6.1 3.5-.8-3.1-13.9-5 1.1-.6 10.5h-.1l-5.1-9.2-5 1.1 3.1 13.9c-.1-.1 3.2-.9 3.2-.9zM114.3 34.6l-.1-3.2-5.5.1-.1-11.1h-3.9l.2 14.3zM126.6 21.6l-3.3-.5-7.3 13.8 3.4.5zM132.9 38.4c1.4.4 2.8.6 4.1.4l.9-3.1c-.6.1-1.3.1-1.9.1-.6 0-1.2-.1-1.8-.3-2-.6-2.6-2.2-1.8-4.9.4-1.3.9-2.2 1.6-2.8.7-.6 1.5-.7 2.4-.5.6.2 1.1.4 1.6.7s.9.7 1.3 1.1l2-2.6c-1.2-1-2.5-1.8-3.9-2.2-1.4-.4-2.6-.5-3.8-.2-1.2.3-2.2.9-3 1.8-.9.9-1.5 2.1-1.9 3.5-.7 2.3-.7 4.2.1 5.7.7 1.6 2.1 2.7 4.1 3.3zM141.3 41.4c.5.4 1.2.8 2 1.3 1 .5 2 .8 2.9.8.9 0 1.7-.1 2.5-.6.7-.4 1.3-1 1.7-1.8.4-.9.6-1.7.4-2.5-.1-.8-.6-1.7-1.5-2.7-.9-1.1-1.4-1.8-1.6-2.1s-.2-.6 0-.9c.1-.2.3-.4.6-.4.3-.1.6 0 1.1.3.9.4 1.8 1.2 2.7 2.4l2.4-2.1c-1.1-1.3-2.3-2.3-3.6-3-1.5-.8-2.8-1-4-.8-1.2.2-2.1.9-2.7 2.1-.3.6-.5 1.2-.5 1.8 0 .6.1 1.1.3 1.7.2.6.7 1.2 1.3 2 .7.9 1.1 1.4 1.3 1.7.1.2.2.5.3.6s0 .4-.1.5c-.1.3-.4.4-.7.5-.3.1-.7 0-1.3-.3-.6-.3-1.2-.7-1.8-1.3s-1.2-1.2-1.6-1.8l-1.5 3.1c.4.6.9 1.1 1.4 1.5zM157 47c-.3 0-.7-.2-1.2-.5-.5-.4-1.1-.9-1.6-1.5s-1-1.3-1.3-2.1l-2 2.8c.4.7.8 1.3 1.2 1.8s1 1 1.8 1.6c.9.7 1.8 1.1 2.7 1.3.9.2 1.7.1 2.5-.1s1.4-.8 1.9-1.5c.6-.8.8-1.6.8-2.4 0-.8-.4-1.8-1-3-.7-1.2-1.1-2-1.2-2.4s-.1-.6.1-.9c.2-.2.4-.3.7-.3s.6.1 1 .4c.8.6 1.5 1.5 2.2 2.8l2.7-1.7c-.8-1.5-1.9-2.6-3-3.5-1.4-1-2.6-1.5-3.8-1.4-1.2 0-2.2.6-3 1.6-.4.6-.7 1.1-.8 1.7-.1.5-.1 1.1 0 1.7.1.6.5 1.3 1 2.2.6 1 .9 1.6 1 1.9.1.3.2.5.2.7s-.1.4-.2.5c-.1.2-.3.3-.7.3z"/><path fill="#9DD3AD" d="M89.3 182.5l-4.7-1.4-3.9 13.7 3.7 1.1 1.3-4.6 1 .3c1.7.5 3.1.4 4.2-.1s1.9-1.6 2.4-3.2c.4-1.4.3-2.6-.4-3.6s-1.9-1.7-3.6-2.2zm.2 4.8c-.2.6-.4.9-.9 1.2-.4.2-.9.2-1.5.1l-.7-.2.9-3.2 1 .3c1.1.2 1.4.9 1.2 1.8zM100.5 184.8l-5.9 13.9 4.2.4 1-2.6 4.6.4.5 2.7 4.2.4-3.4-14.7-5.2-.5zm.3 8.5c.8-2.2 1.3-3.6 1.6-4.4.2-.7.4-1.3.5-1.6 0 .4.1 1 .2 1.8s.2 1.5.3 2.1l.4 2.4-3-.3zM122.3 184.6l-10.7.9.2 3.2 3.5-.3 1 11 3.9-.3-1-11.1 3.4-.3zM133.1 181.8l1.4 5.1-4.3 1.2-1.5-5.1-3.7 1.1 4 13.7 3.7-1-1.6-5.6 4.3-1.3 1.6 5.6 3.7-1-3.9-13.8zM150 85c0-2.8-2.2-5-5-5h-70c-2.8 0-5 2.2-5 5v10h80v-10zm-72.5 5v-5h65v5h-65z"/><path fill="#71C297" d="M120 100h20v45h5c2.8 0 5-2.2 5-5v-45h-80v45c0 2.8 2.2 5 5 5h45v-45zm-42.5 0h32.5v10h-32.5v-10z"/><path fill="#70C297" d="M77.5 85h65v5h-65z"/><path fill="#228063" d="M77.5 100h32.5v10h-32.5z"/><path fill="#9DD3AD" d="M135 100h-15v64.1l.6-.1.9-.2 1.7-.4.7-.2 2.2-.6.8-.2 1.6-.5.8-.3c.7-.2 1.3-.5 2-.8l.3-.1c.7-.3 1.4-.6 2.1-1l.7-.3.8-.4v-59z"/><path fill="#30A480" d="M135 100h5v45h-5z"/></svg>
