<svg xmlns="http://www.w3.org/2000/svg" viewBox="0 0 220 220"><circle fill="#2E3054" cx="110" cy="110" r="106.8"/><path fill="#2E3054" d="M110 0c-60.8 0-110 49.2-110 110s49.2 110 110 110 110-49.2 110-110-49.2-110-110-110zm69.8 181.6l-2.6 2.5c-4.1 3.8-8.6 7.2-13.3 10.2-.7.4-1.4.9-2 1.3-3.2 2-6.6 3.7-10 5.3-1.7.8-3.4 1.5-5.2 2.2l-2.3.9c-1.5.6-3.1 1.1-4.6 1.6-1.6.5-3.1.9-4.7 1.3-2.4.6-4.8 1.1-7.3 1.6-5.7 1-11.7 1.6-17.7 1.6s-12-.5-17.7-1.6c-3.3-.6-6.5-1.3-9.7-2.2-1.6-.4-3.1-.9-4.7-1.5-2.3-.8-4.6-1.7-6.9-2.6-.7-.3-1.5-.6-2.2-1-10.3-4.7-19.7-11.1-27.8-18.8-14.1-13.4-24.3-31-28.6-50.7v-.1c-.5-2.3-.9-4.6-1.3-6.9v-.3l-.3-2.2v-.4l-.1-.5-.1-.5-.1-1.4-.1-.7-.1-1.2v-.9l-.1-.9-.1-1.6v-8.399999999999999c0-.5 0-1.1.1-1.6l.1-.9v-.9l.1-1.2.1-.7.1-1.4.1-.5.1-.5v-.4l.3-2.2v-.3c.3-2.3.8-4.6 1.3-6.9v-.1c.5-2.3 1.1-4.6 1.8-6.8 12.1-41.2 50.4-71.3 95.7-71.3s83.6 30.1 95.9 71.4c.5 1.6.9 3.2 1.3 4.8l.5 2.1v.1c.5 2.3.9 4.6 1.3 6.9v.3l.3 2.2v.4l.1.5.1.5.1 1.4.1.7.1 1.2v.9l.1.9.1 1.6v8.399999999999999c0 .5 0 1.1-.1 1.6l-.1.9v.9l-.1 1.2-.1.7-.1 1.4-.1.5-.1.5v.4l-.3 2.2v.3c-.3 2.3-.8 4.6-1.3 6.9v.1c-.5 2.3-1.1 4.6-1.8 6.8-5 16.4-14 31.1-26.1 42.9z"/><path fill="#54588A" d="M10.7 122.2l.3 2.2-.1-.7c0-.5-.1-1-.2-1.5zM64 156c-5-5-9.3-10.9-12.4-17.4h-37.5c-.5-1.6-.9-3.2-1.3-4.8l-.3-1.3-.2-.8c4.4 19.7 14.5 37.2 28.6 50.7-.6-.6-1.2-1.1-1.7-1.7l24.8-24.7zM209.7 117.1v-.5.2.3zM209.8 115.8l.1-1.6v.4l-.1 1.2zM209.8 103.4v-.5.3.2zM209.6 100.6l-.1-1.4.1.6v.8zM209.4 98.7l-.1-.5v.3l.1.2zM208.2 91.1l.2.9c.2 1.1.4 2.1.5 3.2v.2c-.3-2.3-.8-4.6-1.3-6.9l.1.3c.2.7.3 1.5.5 2.3zM209.7 102.5l-.1-1.2v.6l.1.6zM11.8 128.9l-.2-.8c-.2-1.1-.4-2.1-.5-3.2v-.2c.3 2.3.8 4.6 1.3 6.9l-.1-.3-.5-2.4zM209.3 97.8l-.3-2.2.1.7c0 .5.1 1 .2 1.5zM135 206.9c-2.4.6-4.8 1.1-7.3 1.6 2.5-.5 4.9-1 7.3-1.6zM77.9 204.7c-2.3-.8-4.6-1.7-6.9-2.6 2.3 1 4.6 1.9 6.9 2.6zM92.3 208.4c-3.3-.6-6.5-1.3-9.7-2.2 3.2.9 6.4 1.7 9.7 2.2zM68.8 201.2c-10.3-4.7-19.7-11.1-27.8-18.8 8.1 7.7 17.5 14.1 27.8 18.8zM177.2 184c-4.1 3.8-8.6 7.2-13.3 10.2 4.7-3 9.2-6.4 13.3-10.2zM168.4 138.6c-3.2 6.5-7.4 12.3-12.4 17.4l24.7 24.7-.9.8c12-11.7 21.1-26.5 26-43l-37.4.1zM10 112.9v-2.9 2.9zM161.9 195.5c-3.2 2-6.6 3.7-10 5.3 3.4-1.5 6.7-3.3 10-5.3zM10 110v-2.9 2.9zM209.6 118.7l.1-1.2-.1.7v.5zM209.3 121.9l.1-.5v.2c-.1-.1-.1.3-.1.3zM209 124.4l.3-2.2-.2 1.5-.1.7zM209.4 120.8l.1-1.4-.1.8v.6zM208.4 128.1l-.2.9-.5 2.4-.1.3c.5-2.3.9-4.6 1.3-6.9v.2c-.2.9-.3 2-.5 3.1zM210 107.1v2.9-2.9zM207.1 133.8c-.4 1.6-.8 3.2-1.3 4.8.7-2.2 1.3-4.5 1.8-6.8l-.2.8-.3 1.2zM210 110v2.9-2.9zM209.9 105.8c0-.5 0-1.1-.1-1.6l.1 1.2v.4zM11 95.6l-.3 2.2.2-1.5.1-.7zM10.2 104.2l-.1 1.6v-.4l.1-1.2zM11.6 91.9l.2-.8.5-2.4.1-.3c-.5 2.3-.9 4.6-1.3 6.9v-.2c.2-1 .3-2.1.5-3.2zM10.6 121.3l.1.5v-.3l-.1-.2zM10.4 119.4l.1 1.4-.1-.6c.1 0 0-.8 0-.8zM10.7 98.1l-.1.5v-.2l.1-.3zM10.4 101.3l-.1 1.2.1-.7v-.5zM10.6 99.2l-.1 1.4.1-.8c-.1 0 0-.6 0-.6zM110 45c25.6 0 47.8 14.9 58.4 36.4h37.5c-12.3-41.3-50.6-71.4-95.9-71.4s-83.6 30.1-95.9 71.4h37.5c10.6-21.5 32.8-36.4 58.4-36.4zm7.4-14.3c.7.5 1.4.9 2.1 1.2.8.3 1.5.5 2.1.6.6.1 1 .1 1.3-.1.3-.2.5-.4.5-.7 0-.2 0-.4-.1-.5-.1-.2-.2-.3-.4-.5s-.8-.6-1.7-1.2c-.9-.6-1.5-1.1-1.9-1.5-.4-.5-.7-1-.8-1.5-.1-.5-.2-1.2-.1-1.9.2-1.3.8-2.2 1.9-2.8 1.1-.6 2.4-.7 4.1-.5 1.5.2 2.9.8 4.3 1.7l-1.6 2.8c-1.2-.8-2.3-1.3-3.3-1.4-.5-.1-.9 0-1.1.1-.3.1-.4.3-.4.6s.1.5.3.8 1 .8 2.1 1.6c1.1.7 1.9 1.5 2.3 2.2.4.7.5 1.5.3 2.5-.1.9-.5 1.6-1 2.2-.5.6-1.3 1-2.2 1.3-.9.2-1.9.3-3 .1-.9-.1-1.7-.3-2.3-.6s-1.2-.6-1.9-1c0-.1.5-3.5.5-3.5zm-15.7-8.4c1.1-1.3 2.8-2 5.1-2.1 2.3-.1 4 .5 5.2 1.7s1.9 3 2 5.4c.1 2.4-.4 4.2-1.6 5.5s-2.8 2-5.1 2.1c-2.2.1-4-.5-5.2-1.7-1.2-1.2-1.9-3-2-5.4-.1-2.4.4-4.2 1.6-5.5zm-7.5-.6l2.8 14-3.8.8-2.8-14 3.8-.8zM207.1 86.2c-.4-1.6-.8-3.2-1.3-4.8.5 1.6.9 3.2 1.3 4.8zM10.3 117.5l.1 1.2v-.6l-.1-.6zM107.2 31.7c1 0 1.7-.4 2.1-1.1.4-.7.6-1.7.6-3.2-.1-1.4-.3-2.5-.8-3.1-.5-.7-1.2-1-2.2-.9-1.9.1-2.8 1.5-2.8 4.3.1 2.7 1.1 4 3.1 4zM207.6 88.3l-.5-2.1c.1.4.2.8.3 1.3l.2.8zM10.3 102.9v.5-.2c-.1 0 0-.3 0-.3zM12.9 86.2c.4-1.6.8-3.2 1.3-4.8-.7 2.3-1.3 4.5-1.8 6.8l.2-.8c0 .1.3-1.2.3-1.2zM10.1 114.2c0 .5 0 1.1.1 1.6l-.1-1.2v-.4zM10.2 116.6v.5-.3-.2z"/><path fill="#41456E" d="M88.3 185.5l-1-.3-.9 3.2.7.2c.6.2 1 .1 1.5-.1.4-.2.7-.6.9-1.2.2-.9-.1-1.6-1.2-1.8zM156 156c-11.8 11.8-28 19-46 19s-34.2-7.3-46-19l-24.7 24.7 1.7 1.7c8.1 7.7 17.5 14.1 27.8 18.8l2.2 1c2.2.9 4.5 1.8 6.9 2.6 1.5.5 3.1 1 4.7 1.5 3.2.9 6.4 1.6 9.7 2.2 5.7 1 11.7 1.6 17.7 1.6s12-.5 17.7-1.6c2.5-.4 4.9-1 7.3-1.6 1.6-.4 3.2-.9 4.7-1.3 1.6-.5 3.1-1 4.6-1.6l2.3-.9c1.8-.7 3.5-1.4 5.2-2.2 3.4-1.6 6.8-3.4 10-5.3.7-.4 1.4-.8 2-1.3 4.7-3 9.2-6.5 13.3-10.2.9-.8 1.7-1.6 2.6-2.5l.9-.8-24.6-24.8zm-62.8 32.3c-.4 1.5-1.2 2.6-2.4 3.2-1.1.6-2.5.6-4.2.1l-1-.3-1.3 4.6-3.7-1.1 3.9-13.7 4.7 1.4c1.7.5 2.9 1.3 3.6 2.3.7.9.8 2.1.4 3.5zm11.6 11.2l-.5-2.7-4.6-.4-1 2.6-4.2-.4 5.9-13.9 5.1.5 3.4 14.7-4.1-.4zm15.4-.4l-3.8.4-1-11.1-3.5.3-.3-3.1 10.8-1 .3 3.1-3.5.3 1 11.1zm16.8-3.6l-1.6-5.6-4.3 1.2 1.6 5.6-3.7 1.1-4-13.7 3.7-1.1 1.5 5.1 4.3-1.2-1.5-5.1 3.7-1.1 4 13.7-3.7 1.1zM103.1 189.1c-.1-.8-.2-1.4-.2-1.8-.1.3-.3.9-.5 1.6-.2.7-.8 2.2-1.6 4.4l3 .3-.4-2.4c0-.5-.2-1.2-.3-2.1zM12.6 87.5l-.2.8v.1l-.1.3.3-1.2zM170.5 86.2h36.6c-.4-1.6-.8-3.2-1.3-4.8h-37.5c.9 1.6 1.5 3.2 2.2 4.8zM49.5 86.2c.6-1.6 1.3-3.2 2.1-4.8h-37.5c-.5 1.6-.9 3.2-1.3 4.8h36.7zM208.4 91.9l-.2-.9.2.9zM209.1 96.3l-.1-.7v-.5l.1 1.2zM209.8 103.2v-.7l-.1-.7c0 .5 0 .9.1 1.4zM207.7 88.7l-.1-.3v-.1l-.2-.8.3 1.2zM209.5 99.8l-.1-.6-.1-.5v-.2c.1.4.1.8.2 1.3zM10.2 116.8v.7l.1.7c0-.5 0-.9-.1-1.4zM10.5 120.2l.1.6.1.5v.2c-.1-.4-.1-.8-.2-1.3zM10.1 113.7v.9-.9zM11.1 95.1v.5l-.1.7c-.1 0 .1-1.2.1-1.2zM11.8 91.1l-.2.8.2-.8zM10.1 105.8v.8-.8zM10.7 98.5v.2l-.1.5-.1.6c.1-.5.1-.9.2-1.3zM10.3 101.9l-.1.7v.7l.1-1.4zM12.9 133.8c.4 1.6.8 3.2 1.3 4.8h37.5c-.8-1.6-1.5-3.1-2.1-4.8h-36.7zM208.9 124.9v-.5l.1-.7-.1 1.2zM209.3 121.5v-.2l.1-.5.1-.6c-.1.5-.1.9-.2 1.3zM170.5 133.8c-.6 1.6-1.3 3.2-2.1 4.8h37.5c.5-1.6.9-3.2 1.3-4.8h-36.7zM208.2 128.9l.2-.9-.2.9zM11.8 128.9l-.2-.8.2.8zM207.4 132.5l.2-.8v-.1l.1-.3-.3 1.2zM209.9 106.3v-.9.9zM209.9 114.2v-.8.8zM12.3 131.3l.1.3v.1l.2.8-.3-1.2zM10.9 123.7l.1.7v.5l-.1-1.2zM209.7 118.1l.1-.7v-.7l-.1 1.4z"/><path fill="#6E77B0" d="M11.1 124.9l.5 3.2.2.8.5 2.4.3 1.2.3 1.3h36.7c.6 1.6 1.3 3.2 2.1 4.8 3.1 6.4 7.3 12.3 12.3 17.4 11.8 11.8 28 19 46 19s34.2-7.3 46-19c5-5 9.3-10.9 12.4-17.4.8-1.6 1.5-3.1 2.1-4.8h36.7l.3-1.3.3-1.2.5-2.4.2-.9c.2-1.1.4-2.1.5-3.2l.2-1.2.2-1.5v-.7l.1-1.3.1-.8.1-.7v-.6l.1-1.3v-.2l.1-.9.1-1.2v-9.000000000000002l-.1-1.2-.1-.9v-.2l-.1-1.3v-.6l-.1-.7-.1-.8-.1-1.3v-.7l-.2-1.5-.2-1.2-.5-3.2-.2-.9-.5-2.4-.3-1.2-.3-1.3h-36.7c-.6-1.6-1.3-3.2-2.1-4.8-10.6-21.3-32.8-36.2-58.4-36.2s-47.8 14.9-58.4 36.4c-.8 1.6-1.5 3.1-2.1 4.8h-36.6l-.3 1.3-.3 1.2-.5 2.4-.2.8c-.2 1.1-.4 2.1-.5 3.2l-.2 1.2-.2 1.5v.7l-.1 1.3-.1.8-.1.7v.6l-.1 1.3v.2l-.1.9-.1 1.2v9.000000000000002l.1 1.2.1.9v.2l.1 1.3v.6l.1.7.1.8.1 1.3v.7l.2 1.5c.1 0 .2 1.2.2 1.2zm71.4 32.7l.3.2-.7-.4-.4-.3-.5-.3-.5-.3-.3-.2-.2-.2c.6.5 1.5 1 2.3 1.5zm3 1.6l-.3-.1-.3-.1-.7-.4-.7-.4-.4-.2-.3-.2.2.1c.8.5 1.6.9 2.5 1.3zm97.6-40.7c0-.2.1-.4.2-.6l7.9-7.9-7.9-7.9c-.2-.2-.2-.4-.2-.6v-3.3c0-.2.1-.4.2-.6.2-.2.4-.2.6-.2.2 0 .4.1.6.2l11.8 11.8c.3.3.3.8 0 1.2l-11.8 11.8c-.2.2-.4.2-.6.2-.2 0-.4-.1-.6-.2-.2-.2-.2-.4-.2-.6v-3.3zm-73.1-63.5c30.4 0 55 24.6 55 55 0 14.6-5.7 27.9-15 37.7l-.4.4-1.2 1.2-.8.7-1.2 1.1-.8.7-.6.5-.2.1-.5.4-.6.5-.7.7-.7.5-.2.2-.5.4-.6.4-.8.5-.2.1-.2.2-.3.2-.5.3-.5.3-.4.3-.7.4-.3.2-.4.2-.7.4-.7.4-.3.1-.5.3-.7.4-1 .4h-.1l-.7.3-.1.1-.4.2-.8.3-.8.3-.3.1-.4.2h-.1l-.4.2-1.1.4-.4.2-.3.1-.4.1-1.1.3-.7.2h-.2l-.2.1-.6.1-.9.2-.5.1h-.2l-.4.1-.6.1-.8.2-.8.1h-.1l-.6.1h-.3l-.6.1-.9.1-.9.1h-.6000000000000001l-.7.1-1.2.1h-3.3s-1.5 0-2.3-.1h-1l-1.2-.1-.7-.1h-.6000000000000001l-.9-.1-.9-.1-.6-.1h-.3l-.6-.1h-.1l-.8-.1-.8-.2-.6-.1-.4-.1h-.2l-.5-.1-.9-.2-.6-.1-.2-.1h-.2l-.7-.2-1.1-.3-.4-.1-.3-.1-.4-.2c-.4-.1-.7-.2-1.1-.4l-.4-.1h-.1l-.4-.1-.3-.1-.8-.3-.8-.3-.4-.2-.1-.1-.7-.3h-.1l-.9-.4-.7-.4 53.8-54.5h-60v51.1l-.2-.1-.8-.5-.6-.4-.5-.4-.2-.2-.7-.5-.6-.5-.6-.5-.5-.4-.2-.1-.6-.5-.8-.7-1.2-1.1-.8-.7-1.2-1.2-.4-.4c-9.3-9.8-15-23.1-15-37.7-.1-30.6 24.5-55.2 54.9-55.2zm-86.3 54.4l11.8-11.8c.2-.2.4-.2.6-.2.2 0 .4.1.6.2.2.2.2.4.2.6v3.3c0 .2-.1.4-.2.6l-7.9 7.9 7.9 7.9c.2.2.2.4.2.6v3.3c0 .2-.1.4-.2.6-.2.2-.4.2-.6.2-.2 0-.4-.1-.6-.2l-11.8-11.8c-.3-.3-.3-.9 0-1.2z"/><path fill="#2E3054" d="M70.4 148.2l1.2 1.2-1.2-1.2zM123.9 163.2l-.6.1.6-.1zM101.5 164.3h.3-.3zM114.6 164.8l.7-.1h.4-.3c.1 0-.8.1-.8.1zM132.6 160.1l1-.4.7-.4h-.1c-.5.3-1 .6-1.6.8zM73.6 151.2l-1.2-1.1 1.2 1.1zM147.6 150.1l-1.2 1.1 1.2-1.1zM148.4 149.4l1.2-1.2-1.2 1.2zM120.7 164l.6-.1h-.2l-.4.1zM98.7 163.8l.6.1-.4-.1h-.2zM96.7 163.4l-.6-.1.6.1zM118.3 164.4h.3-.1-.2zM70 147.7v-52.7c0-8.3 6.7-15 15-15h50c8.3 0 15 6.7 15 15v52.7c9.3-9.8 15-23.1 15-37.7 0-30.4-24.6-55-55-55s-55 24.6-55 55c0 14.6 5.7 27.9 15 37.7z"/><path fill="#54588A" d="M183.3 122.4c.2.2.4.2.6.2.2 0 .4-.1.6-.2l11.8-11.8c.3-.3.3-.8 0-1.2l-11.8-11.8c-.2-.2-.4-.2-.6-.2-.2 0-.4.1-.6.2-.2.2-.2.4-.2.6v3.3c0 .2.1.4.2.6l7.9 7.9-7.9 7.9c-.2.2-.2.4-.2.6v3.3c0 .2.1.4.2.6zM23.7 110.6l11.8 11.8c.2.2.4.2.6.2.2 0 .4-.1.6-.2.2-.2.2-.4.2-.6v-3.3c0-.2-.1-.4-.2-.6l-7.9-7.9 7.9-7.9c.2-.2.2-.4.2-.6v-3.3c0-.2-.1-.4-.2-.6-.2-.2-.4-.2-.6-.2-.2 0-.4.1-.6.2l-11.8 11.8c-.3.3-.3.9 0 1.2z"/><path fill="#C1C0DA" d="M93.168 36.529l-2.816-14.02 3.824-.768 2.816 14.02zM102.1 33.2c1.2 1.2 3 1.8 5.2 1.7 2.3-.1 4-.8 5.1-2.1s1.7-3.1 1.6-5.5c-.1-2.4-.7-4.2-2-5.4s-3-1.8-5.2-1.7c-2.3.1-4 .8-5.1 2.1s-1.7 3.1-1.6 5.5c.1 2.4.7 4.2 2 5.4zm4.8-9.8c.9 0 1.7.3 2.2.9s.8 1.7.8 3.1c.1 1.4-.1 2.5-.6 3.2s-1.2 1-2.1 1.1c-1.9.1-2.9-1.3-3-4-.2-2.8.8-4.3 2.7-4.3zM121.1 35.6c1.1.2 2.1.1 3-.1s1.6-.7 2.2-1.3c.5-.6.9-1.4 1-2.2.1-1 0-1.8-.3-2.5-.4-.7-1.1-1.4-2.3-2.2-1.2-.8-1.9-1.3-2.1-1.6-.3-.3-.4-.5-.3-.8 0-.3.2-.5.4-.6.3-.1.6-.2 1.1-.1 1 .1 2.1.6 3.3 1.4l1.6-2.8c-1.4-.9-2.9-1.5-4.3-1.7-1.7-.3-3-.1-4.1.5-1.1.6-1.7 1.5-1.9 2.8-.1.7-.1 1.3.1 1.9.1.5.4 1 .8 1.5s1 1 1.9 1.5c.9.6 1.5 1 1.7 1.2.2.2.4.4.4.5.1.2.1.3.1.5 0 .3-.2.5-.5.7-.3.2-.7.2-1.3.1-.7-.1-1.4-.3-2.1-.6-.8-.3-1.5-.7-2.1-1.2l-.5 3.4c.6.4 1.3.8 1.9 1s1.4.6 2.3.7z"/><path fill="#959EC8" d="M89.3 182.5l-4.7-1.4-3.9 13.7 3.7 1.1 1.3-4.6 1 .3c1.7.5 3.1.4 4.2-.1 1.1-.6 1.9-1.6 2.4-3.2.4-1.4.3-2.6-.4-3.6s-1.9-1.7-3.6-2.2zm.2 4.8c-.2.6-.4.9-.9 1.2-.4.2-.9.2-1.5.1l-.7-.2.9-3.2 1 .3c1.1.2 1.4.9 1.2 1.8zM100.5 184.8l-5.9 13.9 4.2.4 1-2.6 4.6.4.5 2.7 4.2.4-3.4-14.7c-.1-.1-5.2-.5-5.2-.5zm.3 8.5c.8-2.2 1.3-3.6 1.6-4.4.2-.7.4-1.3.5-1.6 0 .4.1 1 .2 1.8s.2 1.5.3 2.1l.4 2.4-3-.3zM122.3 184.6l-10.7.9.2 3.2 3.5-.3 1 11 3.9-.3-1-11.1 3.4-.3zM133.1 181.8l1.4 5.1-4.3 1.2-1.5-5.1-3.7 1.1 4 13.7 3.7-1-1.6-5.6 4.3-1.3 1.6 5.6 3.7-1-3.9-13.8zM142.1 154.6l-.5.4.5-.4zM132.6 160.2l-.7.3.7-.3zM90.7 161.5l-.3-.1.3.1zM129.6 161.4l-.3.1.3-.1zM88.2 160.5l-.7-.3.7.3zM136.9 158l.3-.2-.3.2zM95.7 163.1h.2-.1-.1zM76.3 153.5l-.6-.5.6.5zM92.7 162.2l.4.2-.4-.2zM78.4 155l-.5-.4.5.4zM139.5 156.4zM124.1 163.2h.2-.2zM80.5 156.5zM126.8 162.4l.4-.2h-.1l-.3.2zM144.3 153l-.6.5.6-.5zM82.8 157.8l.3.2h-.1l-.2-.2zM85.6 159.3l-.4-.2.4.2zM85.7 159.3l.1.1-.1-.1zM104 164.7h.5-.5zM115.5 164.7h.5-.5zM113 164.9h-.6.2.4zM118.5 164.3l.6-.1-.6.1zM134.2 159.4l.6-.3-.6.3zM121.1 163.9h.2l.4-.1c0-.1-.6.1-.6.1zM98.3 163.7l.4.1h.2c0 .1-.6-.1-.6-.1zM107 164.9h-.6.4.2zM100.9 164.2l.6.1h.1c-.1 0-.7-.1-.7-.1zM150 95c0-8.3-6.7-15-15-15h-50c-8.3 0-15 6.7-15 15v52.7l.4.4 1.2 1.2.8.7 1.2 1.1.8.7.6.5v-57.3c0-5.5 4.5-10 10-10h50c5.5 0 10 4.5 10 10v57.4l.6-.5.8-.7 1.2-1.1.8-.7 1.2-1.2.4-.4v-52.8z"/><path fill="#2E3054" d="M98.1 163.7l-.5-.1.5.1zM82.1 157.4l.7.4-.3-.2-.4-.2zM119.9 164.1l-.8.1.8-.1zM122.4 163.6l-.5.1.5-.1zM117.7 164.5l-.9.1.9-.1zM103.2 164.6l-.9-.1.9.1zM100.8 164.2l-.8-.1.8.1zM80.2 156.3l.3.2.5.3.5.3c-.3-.3-.8-.5-1.3-.8zM90.7 161.5l.4.1h.1l.4.1-.9-.2zM92.8 162.2l.4.1.3.1.4.1c-.4 0-.8-.1-1.1-.3zM85.8 159.4l.7.3.9.4c-.6-.2-1.1-.5-1.6-.7zM88.3 160.5l.4.2.8.3c-.4-.1-.8-.3-1.2-.5zM128.4 161.8l.4-.2h.1l.4-.2-.9.4zM83.5 158.2l.7.4.7.4-1.4-.8zM135.1 158.9l.7-.4.7-.4c-.5.4-.9.6-1.4.8zM107 164.9h.9-.2-.7zM104.5 164.7h-.3.4l.7.1c.1 0-.8-.1-.8-.1zM130.4 161.1l.8-.3.4-.2c-.3.1-.7.3-1.2.5zM138.4 157.1l.5-.3.5-.3.3-.2c-.4.2-.9.5-1.3.8zM137 157.9l.2-.1.7-.4c-.3.2-.6.4-.9.5zM124.2 163.1h.1l.7-.2-.8.2zM83 157.9l-.2-.1.2.1zM95 162.9l.7.2h.1l-.8-.2zM126.1 162.6l.4-.1.3-.1.4-.1c-.3.1-.7.2-1.1.3zM113 164.9h-.8999999999999999.4.2.3zM145 95c0-5.5-4.5-10-10-10h-50c-5.5 0-10 4.5-10 10v57.4l-.6-.5.6.5.2.1.5.4.6.5.7.6.7.5.2.2.5.4.6.4.8.5.2.1v-51.1h60v51.1l.2-.1.8-.5.6-.4.5-.4.2-.2.7-.5.6-.5.6-.5.5-.4.2-.1.6-.5-.6.5.1-57.5z"/><path fill="#54588A" d="M80 156.1l.2.2 1.4.9.4.3.4.3c-.7-.7-1.6-1.2-2.4-1.7zM140 105l-54.3 54.3.1.1 1.6.8h.1l.7.3.1.1c.4.2.9.4 1.3.5l.8.3.3.1.9.3 1.1.4h.1c.4.1.7.2 1.1.4l1.1.3.8.2h.1l.2.1.6.1.9.2.5.1h.2l.7.1.4.1.8.2.8.1h.1l.6.1h.2l.6.1.9.1.9.1h.5l.9.1 1.2.1h1l2.3.1s1.5 0 2.3-.1h1l1.2-.1.9-.1h.5l.9-.1.9-.1.6-.1h.2l.6-.1h.1l.8-.1.8-.2.4-.1.7-.1h.2l.5-.1.9-.2.6-.1.2-.1h.1l.8-.2 1.1-.3c.4-.1.7-.2 1.1-.4h.1c.4-.1.7-.2 1.1-.4l.9-.3.3-.1.8-.3 1.3-.5.1-.1.7-.3h.1c.5-.2 1.1-.5 1.6-.8l.6-.3.3-.1 1.4-.7.4-.2h.1c.3-.2.6-.4 1-.6l.4-.3 1.4-.9.2-.2-.4-51.1zM83 157.9l.2.1.4.2c.5.3.9.5 1.4.7l.3.1.3.1c-1-.3-1.8-.7-2.6-1.2z"/></svg>
