<svg xmlns="http://www.w3.org/2000/svg" width="110" height="110"><g fill="#53598B"><path d="M86.666 55c0-4.548-.966-8.869-2.691-12.778h14.174c-5.508-18.627-22.736-32.222-43.149-32.222s-37.641 13.595-43.148 32.222h14.174c-1.726 3.909-2.692 8.23-2.692 12.778s.966 8.868 2.692 12.777h-14.174c5.507 18.627 22.734 32.223 43.148 32.223 20.413 0 37.641-13.596 43.148-32.223h-14.173c1.725-3.909 2.691-8.229 2.691-12.777zm-30.15 29.405c15.556-.789 27.927-13.653 27.927-29.405 0 15.754-12.371 28.616-27.927 29.405zm-3.741 10.021l-1.264-.092.762-1.816-.761 1.816 1.263.092zm-6.548-3.438l-.324 1.426.251.057.396.078-.397-.078-.251-.057.325-1.426zm1.154 1.028c-.099.436-.343.553-.644.549.301.003.545-.114.644-.549zm6.057-76.568c.909-.036 1.685.673 1.716 1.482.04 1.01-.677 1.778-1.587 1.814.91-.036 1.626-.804 1.586-1.814-.032-.809-.807-1.517-1.715-1.482zm6.557 3.76c.354.051.757-.072.813-.48.058-.378-.392-.602-.711-.744.319.142.771.366.715.746-.059.407-.461.53-.815.479-.13-.019-.253-.053-.369-.102.116.048.238.082.367.101zm1.218-2.291l-.062-.028.06.027.002.001zm-.551-.264l-.021-.012.021.012zm1.252-.421c-.122-.135-.266-.253-.425-.345.159.091.303.21.425.345zm-14.137 60.436c-1.448 0-2.669-.932-3.129-2.223h-6.871c-1.84 0-3.333-1.493-3.333-3.334 0 1.84 1.494 3.332 3.333 3.332h6.871c.459 1.291 1.681 2.223 3.129 2.223h15.557c1.448 0 2.669-.932 3.128-2.223.124-.352.204-.721.204-1.111v.001h6.668c1.227 0 2.223-.995 2.223-2.222 0 1.228-.996 2.223-2.223 2.223h-6.668c0 .393-.08.762-.204 1.111-.459 1.291-1.68 2.223-3.128 2.223h-15.557zm7.78-6.667c-1.227 0-2.222.995-2.222 2.222 0 1.074.762 1.971 1.774 2.178-1.014-.207-1.775-1.104-1.775-2.178 0-1.228.994-2.223 2.223-2.222.642-.001 1.214.274 1.619.708-.406-.434-.979-.708-1.619-.708zm1.32 4.001c-.369.275-.823.443-1.32.443.496 0 .95-.168 1.32-.443zm-11.321-.669c0 1.228.995 2.224 2.222 2.224h-.001c-1.227 0-2.222-.996-2.221-2.224l-.001-36.666.001 36.666zm17.778-39.999h-15.557c-1.448 0-2.669.931-3.129 2.223-.124.349-.204.72-.204 1.111v-.001c0-.392.08-.762.204-1.111.459-1.292 1.681-2.223 3.129-2.223l15.557.001c1.448-.001 2.669.93 3.128 2.222.124.349.204.72.204 1.111v.001c0-.392-.08-.762-.204-1.111-.459-1.292-1.68-2.223-3.128-2.223zm-18.89 6.111h-.555c-.307-.001-.555.248-.555.555s.248.556.555.556h-.001c-.307 0-.555-.249-.555-.556s.248-.556.555-.556l.556.001zm0 33.887c0 .157.021.308.044.457-.023-.149-.044-.3-.044-.457zm22.779-32.777c.307.001.555-.248.555-.555-.001.307-.249.556-.555.555l-.557.001v-.001h.557zm-8.567-24.483c.168-1.178 1.117-1.828 2.279-1.661.584.083 1.272.371 1.748.737-.475-.365-1.164-.652-1.748-.736-1.162-.167-2.109.482-2.277 1.661-.121.842.179 1.242.719 1.56-.541-.319-.843-.718-.721-1.561zm.086 2.344l.002.001-.82 1.124c.149.141.313.266.484.38-.172-.115-.336-.24-.486-.381l.82-1.124zm-2.004-1.555c-.069-1.773-1.673-2.956-3.359-2.89 1.687-.066 3.29 1.117 3.359 2.89zm-3.114 3.36c-1.882.074-3.294-1.209-3.368-3.106.074 1.896 1.486 3.18 3.368 3.106zm-5.606-5.497l.001.008-1.474.284 1.107 5.75-.025.005-1.107-5.759 1.498-.288zm-4.303 80.448l1.297-5.721-1.297 5.719 1.484.34-1.484-.338zm2.757-1.367l-.841-.191.842.188c1.134.259 1.936-.036 2.325-1.017-.388.983-1.191 1.277-2.326 1.02zm2.446 2.533l2.67-5.686h.002l-2.67 5.686 1.61.116-1.612-.116zm4.492.324l-.309-1.044-2.093-.151 2.094.151.308 1.044 1.621.115-1.621-.115zm2.048-5.805l4.036-.273-4.034.273.087 1.289h-.002l-.087-1.289zm1.655 5.765l-.312-4.562h.002l.31 4.562 1.52-.104-1.52.104zm6.119-.753l-1.486.339 1.484-.339-.535-2.346 2.148-.488-2.146.488.535 2.346z"/><path d="M92.839 47.7c-.12 0-.241.046-.335.14l-.008.008c-.09.089-.139.209-.139.335v1.888c0 .125.049.246.139.335l4.594 4.594-4.594 4.593c-.09.091-.139.21-.139.335v1.891c0 .123.049.244.139.334l.008.01c.088.088.21.139.335.139.126 0 .245-.051.335-.139l6.826-6.829-.001-.669-6.825-6.825c-.094-.094-.214-.14-.335-.14z"/><path d="M17.161 62.299c.125 0 .245-.051.335-.139l.008-.01c.09-.088.139-.209.139-.334v-1.891c0-.125-.049-.244-.139-.335l-4.594-4.59 4.594-4.594c.09-.089.139-.21.139-.335v-1.888c0-.126-.049-.246-.139-.335l-.008-.008c-.093-.094-.215-.14-.335-.14-.122 0-.243.046-.335.14l-6.826 6.825v.669l6.826 6.826c.088.088.209.139.335.139z"/></g><path fill="#F1EDE0" d="M55 0c-30.376 0-55 24.625-55 55 0 30.376 24.624 55 55 55 30.377 0 55-24.624 55-55 0-30.375-24.623-55-55-55zm0 107.777c-29.148 0-52.777-23.629-52.777-52.777s23.629-52.778 52.777-52.778 52.777 23.629 52.777 52.778c0 29.148-23.629 52.777-52.777 52.777z"/><path fill="#171C21" d="M55 2.222c-29.148 0-52.777 23.63-52.777 52.778s23.629 52.777 52.777 52.777 52.777-23.629 52.777-52.777-23.629-52.778-52.777-52.778zm37.496 48.184c-.09-.089-.139-.21-.139-.335v-1.888c0-.126.049-.246.139-.335l.008-.008c.094-.094.215-.14.335-.14.121 0 .241.046.335.14l6.825 6.825.001.669-6.826 6.826c-.09.088-.209.139-.335.139-.125 0-.247-.051-.335-.139l-.008-.01c-.09-.088-.139-.209-.139-.334v-1.891c0-.125.049-.244.139-.335l4.594-4.59-4.594-4.594zm-74.992 9.187c.09.091.139.21.139.335v1.891c0 .123-.049.244-.139.334l-.008.01c-.09.088-.21.139-.335.139-.126 0-.247-.051-.335-.139l-6.826-6.829v-.669l6.826-6.825c.092-.094.213-.14.335-.14.12 0 .242.046.335.14l.008.008c.09.089.139.209.139.335v1.888c0 .125-.049.246-.139.335l-4.594 4.594 4.594 4.593zm37.496 42.63c-21.65 0-39.885-14.576-45.459-34.445h16.486c-1.727-3.91-2.693-8.23-2.693-12.778s.966-8.869 2.692-12.778h-16.485c5.575-19.869 23.809-34.444 45.459-34.444 21.65 0 39.885 14.575 45.459 34.444h-16.484c1.727 3.909 2.691 8.23 2.691 12.778s-.966 8.868-2.691 12.777h16.485c-5.575 19.869-23.81 34.446-45.46 34.446z"/><path fill="#F1EDE0" d="M55 10c20.413 0 37.641 13.595 43.148 32.222h2.311c-5.574-19.869-23.809-34.444-45.459-34.444-21.65 0-39.884 14.575-45.459 34.444h2.311c5.507-18.627 22.735-32.222 43.148-32.222z"/><path fill="#F1EDE0" d="M98.148 67.777c-5.507 18.627-22.735 32.223-43.148 32.223-20.414 0-37.641-13.596-43.148-32.223h-2.311c5.574 19.869 23.809 34.446 45.459 34.446 21.65 0 39.885-14.576 45.459-34.445h-2.311v-.001z"/><path fill="#53598B" d="M55 23.333c12.941 0 24.062 7.767 28.975 18.889h14.174c-5.508-18.627-22.736-32.222-43.149-32.222s-37.641 13.595-43.148 32.222h14.175c4.912-11.122 16.032-18.889 28.973-18.889zm4.99-5.397c-.908-.405-1.496-.741-1.334-1.864.168-1.178 1.117-1.828 2.279-1.661.584.083 1.272.371 1.748.737l-.77 1.084c-.244-.271-.576-.475-.943-.528-.277-.04-.672.069-.718.392-.05.339.343.528.59.65l.368.17c.771.354 1.34.853 1.205 1.791-.083.577-.309 1.15-.824 1.476-.51.32-1.141.395-1.727.311-.729-.105-1.411-.454-1.943-.954l.82-1.124c.328.385.736.719 1.253.792.354.051.757-.072.813-.48.066-.423-.505-.654-.817-.792zm-6.611-3.965c1.687-.066 3.29 1.117 3.359 2.89.074 1.896-1.232 3.287-3.114 3.36-1.882.074-3.294-1.209-3.368-3.106-.069-1.773 1.435-3.078 3.123-3.144zm-5.361.753l1.105 5.759-1.496.288-1.107-5.759 1.498-.288z"/><path fill="#53598B" d="M55 100c20.413 0 37.641-13.596 43.148-32.223h-14.173c-4.913 11.123-16.034 18.89-28.975 18.89-12.941 0-24.062-7.767-28.974-18.89h-14.174c5.507 18.627 22.734 32.223 43.148 32.223zm6.928-9.852l.504 2.207 2.146-.488-.504-2.208 1.488-.339 1.303 5.721-1.488.339-.533-2.345-2.146.488.534 2.346-1.486.339-1.305-5.72 1.487-.34zm-2.434.436l.087 1.288-1.257.085.309 4.561-1.52.104-.312-4.562-1.256.086-.087-1.289 4.036-.273zm-6.244.187l1.781 6.006-1.621-.115-.309-1.044-2.094-.151-.477.987-1.612-.116 2.67-5.686 1.662.119zm-8.238-1.32l2.275.517c1.229.278 1.95 1.04 1.652 2.354-.307 1.351-1.17 1.775-2.467 1.482l-.842-.191-.43 1.897-1.485-.338 1.297-5.721z"/><path fill="#53598B" d="M53.566 18.744c.91-.036 1.627-.804 1.587-1.814-.032-.809-.808-1.518-1.716-1.482-.91.035-1.627.804-1.596 1.612.04 1.01.815 1.719 1.725 1.684z"/><path fill="#53598B" d="M47.381 92.016c.164-.722-.328-.84-.904-.971l-.25-.057-.324 1.426.251.057c.537.122 1.069.242 1.227-.455z"/><polygon fill="#53598B" points="52.289,92.52 52.273,92.518 51.512,94.334 52.775,94.426"/><path fill="#171C21" d="M55 84.443c16.262 0 29.443-13.184 29.443-29.443 0-16.262-13.182-29.444-29.443-29.444-16.261 0-29.444 13.182-29.444 29.444s13.182 29.443 29.444 29.443zm-20.556-45.554c0-1.84 1.493-3.333 3.333-3.333h6.871c.459-1.292 1.681-2.223 3.129-2.223h15.557c1.448 0 2.669.931 3.128 2.223h6.872c1.84 0 3.332 1.493 3.332 3.333v32.222c0 1.841-1.492 3.334-3.332 3.334h-6.872c-.459 1.291-1.68 2.223-3.128 2.223h-15.557c-1.448 0-2.669-.932-3.129-2.223h-6.871c-1.84 0-3.333-1.493-3.333-3.334v-32.222z"/><path fill="#F1EDE0" d="M55 86.667c12.941 0 24.062-7.767 28.975-18.89 1.725-3.909 2.691-8.229 2.691-12.777s-.966-8.869-2.691-12.778c-4.913-11.122-16.034-18.889-28.975-18.889-12.941 0-24.061 7.767-28.974 18.889-1.726 3.909-2.692 8.23-2.692 12.778s.966 8.868 2.692 12.777c4.912 11.123 16.033 18.89 28.974 18.89zm-29.444-31.667c0-16.262 13.183-29.444 29.444-29.444 16.262 0 29.443 13.182 29.443 29.444s-13.182 29.443-29.443 29.443c-16.261 0-29.444-13.181-29.444-29.443z"/><rect x="44.916" y="16.988" transform="matrix(.189 .982 -.982 .189 56.235 -32.59)" fill="#F1EDE0" width="5.864" height="1.525"/><path fill="#F1EDE0" d="M53.624 20.221c1.882-.073 3.188-1.464 3.114-3.36-.069-1.773-1.673-2.956-3.359-2.89-1.688.066-3.192 1.371-3.123 3.144.074 1.896 1.486 3.18 3.368 3.106zm-.186-4.773c.908-.036 1.684.673 1.716 1.482.04 1.01-.677 1.778-1.587 1.814-.91.035-1.686-.674-1.725-1.684-.031-.808.685-1.577 1.596-1.612z"/><path fill="#F1EDE0" d="M59.997 19.209c-.517-.073-.924-.407-1.253-.792l-.82 1.124c.532.5 1.213.849 1.943.954.586.084 1.217.009 1.727-.311.518-.326.741-.899.824-1.476.135-.938-.432-1.437-1.205-1.791l-.367-.17c-.25-.122-.641-.312-.591-.65.046-.323.438-.432.716-.392.369.053.701.257.945.528l.768-1.084c-.474-.366-1.164-.653-1.748-.737-1.162-.167-2.109.482-2.277 1.661-.162 1.124.426 1.459 1.334 1.864.312.138.883.369.82.793-.059.407-.461.53-.816.479z"/><path fill="#F1EDE0" d="M45.631 93.613l.842.188c1.297.296 2.16-.132 2.467-1.481.298-1.312-.424-2.074-1.652-2.354l-2.275-.517-1.297 5.721 1.484.34.431-1.897zm.596-2.625l.25.057c.576.131 1.068.249.904.971-.158.697-.689.577-1.228.455l-.251-.057.325-1.426z"/><path fill="#F1EDE0" d="M50.531 96.454l.477-.987 2.094.151.309 1.044 1.621.115-1.781-6.006-1.661-.119-2.67 5.686 1.611.116zm1.742-3.936l.016.002.486 1.906-1.264-.092.762-1.816z"/><polygon fill="#F1EDE0" points="56.803,92.061 57.113,96.621 58.633,96.518 58.324,91.957 59.581,91.872 59.494,90.584 55.46,90.857 55.547,92.146"/><polygon fill="#F1EDE0" points="63.23,95.869 62.695,93.523 64.844,93.035 65.377,95.38 66.865,95.041 65.562,89.32 64.074,89.659 64.578,91.867 62.432,92.355 61.928,90.148 60.439,90.488 61.744,96.208"/><path fill="#53598B" d="M92.357 59.928v1.891c0 .123.049.244.139.334l.008.01c.088.088.21.139.335.139.126 0 .245-.051.335-.139l6.826-6.829-.001-.669-6.825-6.825c-.094-.094-.214-.14-.335-.14-.12 0-.241.046-.335.14l-.008.008c-.09.089-.139.209-.139.335v1.888c0 .125.049.246.139.335l4.594 4.594-4.594 4.593c-.09.091-.139.21-.139.335z"/><path fill="#53598B" d="M17.643 50.071v-1.888c0-.126-.049-.246-.139-.335l-.008-.008c-.093-.094-.215-.14-.335-.14-.122 0-.243.046-.335.14l-6.826 6.825v.669l6.826 6.826c.088.088.209.139.335.139.125 0 .245-.051.335-.139l.008-.01c.09-.088.139-.209.139-.334v-1.891c0-.125-.049-.244-.139-.335l-4.594-4.59 4.594-4.594c.09-.089.139-.21.139-.335z"/><path fill="#53598B" d="M37.777 74.443h6.871c-.124-.351-.204-.719-.204-1.11h-6.667c-1.227 0-2.222-.995-2.222-2.222v-32.222c0-1.227.995-2.222 2.222-2.222h6.667c0-.392.08-.762.204-1.111h-6.871c-1.84 0-3.333 1.493-3.333 3.333v32.222c0 1.84 1.494 3.332 3.333 3.332z"/><path fill="#171C21" d="M44.444 66.667h-7.778v-23.334h7.778v-2.777h-.556c-.307 0-.555-.249-.555-.556s.248-.556.555-.556h.556v-2.777h-6.667c-1.227 0-2.222.995-2.222 2.222v32.222c0 1.228.995 2.223 2.222 2.223h6.667v-6.667z"/><rect x="36.666" y="43.333" fill="#53598B" width="7.778" height="23.334"/><path fill="#53598B" d="M43.334 40c0 .307.248.556.555.556h.556v-1.111h-.556c-.307-.001-.555.248-.555.555z"/><path fill="#53598B" d="M73.334 36.667c1.227 0 2.223.995 2.223 2.222v32.222c0 1.228-.996 2.223-2.223 2.223h-6.668c0 .393-.08.762-.204 1.111h6.872c1.84 0 3.332-1.493 3.332-3.334v-32.222c0-1.84-1.492-3.333-3.332-3.333h-6.872c.124.349.204.72.204 1.111h6.668z"/><path fill="#171C21" d="M75.557 71.111v-32.222c0-1.227-.996-2.222-2.223-2.222h-6.668v2.777h.557c.307 0 .555.249.555.556s-.248.556-.555.556h-.557v2.777h7.777v23.334h-7.777v6.666h6.668c1.227 0 2.223-.995 2.223-2.222z"/><rect x="66.666" y="43.333" fill="#53598B" width="7.777" height="23.334"/><path fill="#53598B" d="M67.777 40c0-.307-.248-.556-.555-.556h-.559v1.111h.559c.307.001.555-.248.555-.555z"/><path fill="#F1EDE0" d="M44.444 39.444v33.888c0 .393.08.762.204 1.111.459 1.291 1.681 2.223 3.129 2.223h15.557c1.448 0 2.669-.932 3.128-2.223.124-.352.204-.721.204-1.111v-36.664c0-.392-.08-.762-.204-1.111-.459-1.292-1.68-2.223-3.128-2.223h-15.557c-1.448 0-2.669.931-3.129 2.223-.124.349-.204.72-.204 1.111v2.776zm3.333-5h15.557c1.227 0 2.223.995 2.223 2.223v36.666c0 1.228-.996 2.224-2.223 2.224h-15.557c-1.227 0-2.222-.996-2.222-2.224v-36.666c.001-1.228.996-2.223 2.222-2.223z"/><path fill="#171C21" d="M45.556 73.333c0 1.228.995 2.224 2.222 2.224h15.557c1.228 0 2.222-.996 2.222-2.224v-36.666c0-1.228-.994-2.223-2.222-2.223h-15.558c-1.227 0-2.222.995-2.222 2.223l.001 36.666zm7.778-1.11c0-1.228.994-2.223 2.223-2.223s2.221.995 2.221 2.223c0 1.229-.992 2.223-2.221 2.223s-2.223-.997-2.223-2.223zm11.109-3.334h-17.777v-27.778h17.777v27.778zm-6.109-31.667c.307 0 .555.249.555.556 0 .306-.248.555-.555.555h-5.557c-.307 0-.555-.249-.555-.555 0-.307.248-.556.555-.556h5.557z"/><polygon fill="#53598B" points="46.666,68.889 64.443,68.889 64.443,41.111"/><circle fill="#53598B" cx="55.557" cy="72.223" r="2.222"/><path fill="#53598B" d="M52.777 37.222c-.307 0-.555.249-.555.556 0 .306.248.555.555.555h5.557c.307 0 .555-.249.555-.555 0-.307-.248-.556-.555-.556h-5.557z"/><polygon fill="#F1EDE0" points="64.443,41.111 46.666,41.111 46.666,68.889"/></svg>