<svg xmlns="http://www.w3.org/2000/svg" viewBox="0 0 220 220"><circle fill="#6F2816" cx="110" cy="110" r="106"/><path fill="#6F2816" d="M110 0c-60.8 0-110 49.2-110 110s49.2 110 110 110 110-49.2 110-110-49.2-110-110-110zm69 182.4c-8.1 7.7-17.5 14.1-27.8 18.8l-2.2 1c-2.2.9-4.5 1.8-6.9 2.6-1.5.5-3.1 1-4.7 1.5-3.2.9-6.4 1.6-9.7 2.2-5.7 1-11.7 1.6-17.7 1.6s-12-.5-17.7-1.6c-2.5-.4-4.9-1-7.3-1.6-1.6-.4-3.2-.9-4.7-1.3-1.6-.5-3.1-1-4.6-1.6l-4.5-1.8c-1-.4-2-.9-2.9-1.3-3.4-1.6-6.8-3.4-10-5.3-.7-.4-1.4-.8-2-1.3-4.7-3-9.2-6.5-13.3-10.2-.9-.8-1.7-1.6-2.6-2.5-12-11.7-21.1-26.5-26-43-.7-2.2-1.3-4.5-1.8-6.8v-.1c-.5-2.3-.9-4.6-1.3-6.9v-.3l-.3-2.2v-.4l-.1-.5-.1-.5-.1-1.4-.1-.7-.1-1.2v-.9l-.1-.9-.1-1.6v-8.399999999999999c0-.5 0-1.1.1-1.6l.1-.9v-.9l.1-1.2.1-.7.1-1.4.1-.5.1-.5v-.4l.3-2.2v-.3c.3-2.3.8-4.6 1.3-6.9v-.1l.5-2.1c.4-1.6.8-3.2 1.3-4.8 12-41.2 50.3-71.3 95.6-71.3s83.6 30.1 95.9 71.4c.7 2.3 1.3 4.5 1.8 6.8v.1c.5 2.3.9 4.6 1.3 6.9v.3l.3 2.2v.4l.1.5.1.5.1 1.4.1.7.1 1.2v.9l.1.9.1 1.6v8.399999999999999c0 .5 0 1.1-.1 1.6l-.1.9v.9l-.1 1.2-.1.7-.1 1.4-.1.5-.1.5v.4l-.3 2.2v.3c-.3 2.3-.8 4.6-1.3 6.9v.1c-4.4 19.6-14.6 37.1-28.7 50.6z"/><path fill="#B24626" d="M10.1 114.2c0 .5 0 1.1.1 1.6l-.1-1.2v-.4zM10.2 104.2l-.1 1.6v-.4l.1-1.2zM10.2 116.6v.5-.3-.2zM10.3 117.5l.1 1.2v-.6l-.1-.6zM207.4 132.5l-.3 1.3c-.4 1.6-.8 3.2-1.3 4.8h-37.5c-3.2 6.5-7.4 12.3-12.4 17.4l24.7 24.7-1.7 1.7c14.1-13.4 24.3-31 28.6-50.7l-.1.8zM64 156c-5-5-9.3-10.9-12.4-17.4h-37.5c4.9 16.5 14 31.3 26 43l-.9-.8 24.8-24.8zM12.9 133.8l-.3-1.3-.2-.8c.5 2.3 1.1 4.6 1.8 6.8-.5-1.5-.9-3.1-1.3-4.7zM10.3 102.9v.5-.2c-.1 0 0-.3 0-.3zM10.4 119.4l.1 1.4-.1-.6c.1 0 0-.8 0-.8zM10.6 121.3l.1.5v-.3l-.1-.2zM10.7 122.2l.3 2.2-.1-.7c0-.5-.1-1-.2-1.5zM11.8 128.9l-.2-.9c-.2-1.1-.4-2.1-.5-3.2v-.2c.3 2.3.8 4.6 1.3 6.9l-.1-.3c-.2-.7-.3-1.5-.5-2.3zM14.1 81.4c-.5 1.6-.9 3.2-1.3 4.8.5-1.6.9-3.2 1.3-4.8zM209.9 105.8c0-.5 0-1.1-.1-1.6l.1 1.2v.4zM209.8 103.4v-.5.3.2zM209.6 100.6l-.1-1.4.1.6v.8zM209.7 102.5l-.1-1.2v.6l.1.6zM12.9 86.2l-.5 2.1.2-.8.3-1.3zM11.6 91.9l.2-.9.5-2.4.1-.3c-.5 2.3-.9 4.6-1.3 6.9v-.2c.2-.9.3-2 .5-3.1zM209.8 115.8l.1-1.6v.4l-.1 1.2zM209.7 117.1v-.5.2.3zM119.3 26c.3-.2.5-.5.5-1 .1-.8-.5-1.3-1.7-1.4l-1.1-.1-.2 2.5 1.2.1c.5.2 1 .1 1.3-.1zM207.1 86.2l.3 1.3.2.8c-.5-2.3-1.1-4.6-1.8-6.8.5 1.5.9 3.1 1.3 4.7zM84.8 30.4c1.3-.4 1.8-1.2 1.4-2.3-.3-.9-1.1-1.2-2.3-.8l-.7.2 1 3.1c-.1 0 .6-.2.6-.2zM208.2 91.1l.2.8c.2 1.1.4 2.1.5 3.2v.2c-.3-2.3-.8-4.6-1.3-6.9l.1.3.5 2.4zM209.6 118.7l.1-1.2-.1.7v.5zM110 45c25.6 0 47.8 14.9 58.4 36.4h37.5c-12.3-41.3-50.6-71.4-95.9-71.4s-83.6 30.1-95.9 71.4h37.5c10.6-21.5 32.8-36.4 58.4-36.4zm22.7-21.8l.9 5.8 3.8-4.4 4 1.2-6.9 7-1.6 5.4-3.7-1.1 1.5-5.2-2-9.8 4 1.1zm-19.2-2.9l5 .5c1.9.2 3.3.6 4.2 1.3s1.3 1.6 1.1 2.8c-.1.8-.3 1.5-.8 2s-1 .8-1.7.9v.1c.9.3 1.5.8 1.8 1.4s.5 1.3.4 2.2c-.1 1.3-.7 2.3-1.7 2.9s-2.4.9-4.1.7l-5.5-.5c-.1-.1 1.3-14.3 1.3-14.3zm-14.7.7l.8 8.3c.1 1 .4 1.7.8 2.1s1 .6 1.7.5c.8-.1 1.3-.4 1.6-.8.3-.5.4-1.2.3-2.3l-.8-8.3 3.8-.4.9 8.6c.2 1.9-.2 3.4-1.1 4.5s-2.4 1.8-4.4 2c-1.9.2-3.5-.2-4.6-1-1.1-.9-1.8-2.3-2-4.1l-.9-8.6 3.9-.5zm-15.7 3.5c3.7-1.1 6-.4 6.8 2.3.5 1.6.1 3-1.2 4.4l5.8 4.7-4.2 1.3-4.4-4.1-.9.3 1.5 5-3.7 1.1-4.2-13.6c0-.1 4.5-1.4 4.5-1.4zM209.4 98.7l-.1-.5v.3l.1.2zM119.6 30.7c0-.5-.1-.9-.4-1.1-.3-.3-.8-.5-1.4-.5l-1.3-.1-.3 3 1.4.1c1.2 0 1.9-.4 2-1.4zM209.3 97.8l-.3-2.2.1.7c0 .5.1 1 .2 1.5zM210 107.1v2.9-2.9zM56.1 194.2c-4.7-3-9.2-6.5-13.3-10.2 4.1 3.8 8.6 7.2 13.3 10.2zM10 112.9v-2.9 2.9zM209.4 120.8l.1-1.4-.1.8v.6zM179 182.4c-8.1 7.7-17.5 14.1-27.8 18.8 10.3-4.7 19.7-11.1 27.8-18.8zM148.9 202.1c-2.2.9-4.5 1.8-6.9 2.6 2.4-.7 4.7-1.6 6.9-2.6zM210 110v2.9-2.9zM137.4 206.2c-3.2.9-6.4 1.6-9.7 2.2 3.3-.5 6.5-1.3 9.7-2.2zM68.1 200.8c-3.4-1.6-6.8-3.4-10-5.3 3.3 2 6.6 3.8 10 5.3zM92.3 208.4c-2.5-.4-4.9-1-7.3-1.6 2.4.7 4.8 1.2 7.3 1.6zM10 110v-2.9 2.9zM11 95.6l-.3 2.2.2-1.5.1-.7zM208.4 128.1l-.2.8-.5 2.4-.1.3c.5-2.3.9-4.6 1.3-6.9v.2c-.2 1-.3 2.1-.5 3.2zM209 124.4l.3-2.2-.2 1.5-.1.7zM209.3 121.9l.1-.5v.2c-.1-.1-.1.3-.1.3zM10.7 98.1l-.1.5v-.2l.1-.3zM10.6 99.2l-.1 1.4.1-.8c-.1 0 0-.6 0-.6zM10.4 101.3l-.1 1.2.1-.7v-.5z"/><path fill="#86341D" d="M156 156c-11.8 11.8-28 19-46 19s-34.2-7.3-46-19l-24.7 24.7.9.8 2.6 2.5c4.1 3.8 8.6 7.2 13.3 10.2.7.4 1.4.9 2 1.3 3.2 2 6.6 3.7 10 5.3l2.9 1.3 4.5 1.8s3.1 1.1 4.6 1.6c1.6.5 3.1.9 4.7 1.3 2.4.6 4.8 1.1 7.3 1.6 5.7 1 11.7 1.6 17.7 1.6s12-.5 17.7-1.6c3.3-.6 6.5-1.3 9.7-2.2 1.6-.4 3.1-.9 4.7-1.5 2.3-.8 4.6-1.7 6.9-2.6.7-.3 1.5-.6 2.2-1 10.3-4.7 19.7-11.1 27.8-18.8.6-.6 1.2-1.1 1.7-1.7l-24.5-24.6zm-62.8 32.3c-.4 1.5-1.2 2.6-2.4 3.2-1.1.6-2.5.6-4.2.1l-1-.3-1.3 4.6-3.7-1.1 3.9-13.7 4.7 1.4c1.7.5 2.9 1.3 3.6 2.3.7.9.8 2.1.4 3.5zm11.6 11.2l-.5-2.7-4.6-.4-1 2.6-4.2-.4 5.9-13.9 5.1.5 3.4 14.7-4.1-.4zm15.4-.4l-3.8.4-1-11.1-3.5.3-.3-3.1 10.8-1 .3 3.1-3.5.3 1 11.1zm16.8-3.6l-1.6-5.6-4.3 1.2 1.6 5.6-3.7 1.1-4-13.7 3.7-1.1 1.5 5.1 4.3-1.2-1.5-5.1 3.7-1.1 4 13.7-3.7 1.1zM103.1 189.1c-.1-.8-.2-1.4-.2-1.8-.1.3-.3.9-.5 1.6l-1.6 4.4 3 .3-.4-2.4c0-.5-.2-1.2-.3-2.1zM88.3 185.5l-1-.3-.9 3.2.7.2c.6.2 1 .1 1.5-.1.4-.2.7-.6.9-1.2.2-.9-.1-1.6-1.2-1.8zM11.1 95.1v.5l-.1.7c-.1 0 .1-1.2.1-1.2zM10.7 98.5v.2l-.1.5-.1.6c.1-.5.1-.9.2-1.3zM10.3 101.9l-.1.7v.7l.1-1.4zM11.8 91.1l-.2.9.2-.9zM12.3 131.3l.1.3v.1l.2.8-.3-1.2zM10.5 120.2l.1.6.1.5v.2c-.1-.4-.1-.8-.2-1.3zM49.5 133.8h-36.6c.4 1.6.8 3.2 1.3 4.8h37.5c-.9-1.6-1.5-3.2-2.2-4.8zM10.9 123.7l.1.7v.5l-.1-1.2zM10.1 105.8v.8-.8zM12.6 87.5l-.2.8v.1l-.1.3.3-1.2zM10.2 116.8v.7l.1.7c0-.5 0-.9-.1-1.4zM10.1 113.7v.9-.9zM209.5 99.8l-.1-.6-.1-.5v-.2c.1.4.1.8.2 1.3zM209.9 106.3v-.9.9zM168.4 138.6h37.5c.5-1.6.9-3.2 1.3-4.8h-36.6l-2.2 4.8zM209.9 114.2v-.8.8zM209.8 103.2v-.7l-.1-.7c0 .5 0 .9.1 1.4zM209.3 121.5v-.2l.1-.5.1-.6c-.1.5-.1.9-.2 1.3zM209.7 118.1l.1-.7v-.7l-.1 1.4zM11.8 128.9l-.2-.9.2.9zM207.4 132.5l.2-.8v-.1l.1-.3-.3 1.2zM208.2 128.9l.2-.8-.2.8zM208.9 124.9v-.5l.1-.7-.1 1.2zM207.7 88.7l-.1-.3v-.1l-.2-.8.3 1.2zM170.5 86.2h36.6c-.4-1.6-.8-3.2-1.3-4.8h-37.5c.9 1.6 1.5 3.2 2.2 4.8zM49.5 86.2c.6-1.6 1.3-3.2 2.1-4.8h-37.5c-.5 1.6-.9 3.2-1.3 4.8h36.7zM209.1 96.3l-.1-.7v-.5l.1 1.2zM208.4 91.9l-.2-.8.2.8z"/><path fill="#DB613A" d="M11.1 124.9l.5 3.2.2.9.5 2.4.3 1.2.3 1.3h36.7c.6 1.6 1.3 3.2 2.1 4.8 3.1 6.3 7.3 12.2 12.3 17.3 11.8 11.8 28 19 46 19s34.2-7.3 46-19c5-5 9.3-10.9 12.4-17.4.8-1.6 1.5-3.1 2.1-4.8h36.7l.3-1.3.3-1.2.5-2.4.2-.8c.2-1.1.4-2.1.5-3.2l.2-1.2.2-1.5v-.7l.1-1.3.1-.8.1-.7v-.6l.1-1.3v-.2l.1-.9.1-1.2v-9.000000000000002l-.1-1.2-.1-.9v-.2l-.1-1.3v-.6l-.1-.7-.1-.8-.1-1.3v-.7l-.2-1.5-.2-1.2-.5-3.2-.2-.8-.5-2.4-.3-1.2-.3-1.3h-36.7c-.6-1.6-1.3-3.2-2.1-4.8-10.6-21.5-32.8-36.4-58.4-36.4s-47.8 14.9-58.4 36.4c-.8 1.6-1.5 3.1-2.1 4.8h-36.6c-.1.4-.2.8-.3 1.3l-.3 1.2-.5 2.4-.2.9c-.2 1.1-.4 2.1-.5 3.2l-.1 1.1-.2 1.5v.7l-.1 1.3-.1.8-.1.7v.6l-.1 1.3v.2l-.1.9-.1 1.2v9.000000000000002l.1 1.2.1.9v.2l.1 1.3v.6l.1.7.1.8.1 1.3v.7l.2 1.5.1 1.2zm172-6.4c0-.2.1-.4.2-.6l7.9-7.9-7.9-7.9c-.2-.2-.2-.4-.2-.6v-3.3c0-.2.1-.4.2-.6.2-.2.4-.2.6-.2.2 0 .4.1.6.2l11.8 11.8c.3.3.3.8 0 1.2l-11.8 11.8c-.2.2-.4.2-.6.2-.2 0-.4-.1-.6-.2-.2-.2-.2-.4-.2-.6v-3.3zm-73.1-63.5c30.4 0 55 24.6 55 55s-24.6 55-55 55-55-24.6-55-55 24.6-55 55-55zm-86.3 54.4l11.8-11.8c.2-.2.4-.2.6-.2.2 0 .4.1.6.2.2.2.2.4.2.6v3.3c0 .2-.1.4-.2.6l-7.9 7.9 7.9 7.9c.2.2.2.4.2.6v3.3c0 .2-.1.4-.2.6-.2.2-.4.2-.6.2-.2 0-.4-.1-.6-.2l-11.8-11.8c-.3-.3-.3-.9 0-1.2z"/><path fill="#6F2816" d="M110 165c30.4 0 55-24.6 55-55s-24.6-55-55-55-55 24.6-55 55 24.6 55 55 55zm15-100c0 2.8 2.2 5 5 5-2.8 0-5 2.2-5 5 0-2.8-2.2-5-5-5 2.8 0 5-2.2 5-5zm-55 65c2.8 0 5-2.2 5-5 0 2.8 2.2 5 5 5-2.8 0-5 2.2-5 5 0-2.8-2.2-5-5-5zm75 5c-5.5 0-10 4.5-10 10 0-5.5-4.5-10-10-10 5.5 0 10-4.5 10-10 0 5.5 4.5 10 10 10zm10-35h-30l-15 45-45-45 15-15h60l15 15z"/><path fill="#B24626" d="M183.3 122.4c.2.2.4.2.6.2.2 0 .4-.1.6-.2l11.8-11.8c.3-.3.3-.8 0-1.2l-11.8-11.8c-.2-.2-.4-.2-.6-.2-.2 0-.4.1-.6.2-.2.2-.2.4-.2.6v3.3c0 .2.1.4.2.6l7.9 7.9-7.9 7.9c-.2.2-.2.4-.2.6v3.3c0 .2.1.4.2.6zM23.7 110.6l11.8 11.8c.2.2.4.2.6.2.2 0 .4-.1.6-.2.2-.2.2-.4.2-.6v-3.3c0-.2-.1-.4-.2-.6l-7.9-7.9 7.9-7.9c.2-.2.2-.4.2-.6v-3.3c0-.2-.1-.4-.2-.6-.2-.2-.4-.2-.6-.2-.2 0-.4.1-.6.2l-11.8 11.8c-.3.3-.3.9 0 1.2z"/><path fill="#F5A892" d="M86.5 38.4l-1.5-5 .9-.3 4.4 4.1 4.2-1.3-5.8-4.7c1.3-1.3 1.7-2.8 1.2-4.4-.8-2.7-3.1-3.5-6.8-2.3l-4.5 1.4 4.2 13.6 3.7-1.1zm-2.6-11.1c1.3-.4 2-.1 2.3.8.3 1.1-.1 1.9-1.4 2.3l-.7.2-1-3.1c.1 0 .8-.2.8-.2zM97.8 34.2c1.1.9 2.7 1.2 4.6 1 2-.2 3.4-.9 4.4-2s1.3-2.6 1.1-4.5l-.9-8.6-3.8.4.8 8.3c.1 1 0 1.8-.3 2.3-.3.5-.9.8-1.6.8-.7.1-1.3-.1-1.7-.5s-.7-1.1-.8-2.1l-.8-8.3-3.9.4.9 8.6c.2 1.9.8 3.3 2 4.2zM121.7 34.3c1-.6 1.6-1.6 1.7-2.9.1-.9 0-1.6-.4-2.2s-.9-1-1.8-1.4v-.1c.7-.1 1.3-.4 1.7-.9.5-.5.7-1.2.8-2 .1-1.2-.3-2.1-1.1-2.8s-2.3-1.1-4.2-1.3l-5-.5-1.4 14.2 5.5.5c1.8.3 3.2 0 4.2-.6zm-4.6-10.7l1.1.1c1.2.1 1.8.6 1.7 1.4 0 .4-.2.8-.5 1-.3.2-.8.3-1.3.2l-1.2-.1c-.1-.1.2-2.6.2-2.6zm-.8 8.3l.3-3 1.3.1c.6.1 1.1.2 1.4.5.3.3.4.7.4 1.1-.1 1-.7 1.5-1.9 1.3-.2.1-1.5 0-1.5 0zM129.2 37.1l3.8 1.1 1.5-5.4 7-7-4.1-1.2-3.8 4.4-.9-5.8-4-1.1 2.1 9.7z"/><path fill="#F38055" d="M89.3 182.5l-4.7-1.4-3.9 13.7 3.7 1.1 1.3-4.6 1 .3c1.7.5 3.1.4 4.2-.1 1.1-.6 1.9-1.6 2.4-3.2.4-1.4.3-2.6-.4-3.6s-1.9-1.7-3.6-2.2zm.2 4.8c-.2.6-.4.9-.9 1.2-.4.2-.9.2-1.5.1l-.7-.2.9-3.2 1 .3c1.1.2 1.4.9 1.2 1.8zM100.5 184.8l-5.9 13.9 4.2.4 1-2.6 4.6.4.5 2.7 4.2.4-3.4-14.7c-.1-.1-5.2-.5-5.2-.5zm.3 8.5c.8-2.2 1.3-3.6 1.6-4.4.2-.7.4-1.3.5-1.6 0 .4.1 1 .2 1.8s.2 1.5.3 2.1l.4 2.4-3-.3zM122.3 184.6l-10.7.9.2 3.2 3.5-.3 1 11 3.9-.3-1-11.1 3.4-.3zM133.1 181.8l1.4 5.1-4.3 1.2-1.5-5.1-3.7 1.1 4 13.7 3.7-1-1.6-5.6 4.3-1.3 1.6 5.6 3.7-1-3.9-13.8zM80 85l-15 15h30z"/><path fill="#DB613A" d="M140 85h-30l15 15zM95 100l15-15h-30z"/><path fill="#F38055" d="M110 85l-15 15h30zM125 100h30l-15-15z"/><path fill="#B24626" d="M110 145l15-45h-30z"/><path fill="#DB613A" d="M95 100h-30l45 45zM125 75c0-2.8 2.2-5 5-5-2.8 0-5-2.2-5-5 0 2.8-2.2 5-5 5 2.8 0 5 2.2 5 5zM80 130c-2.8 0-5-2.2-5-5 0 2.8-2.2 5-5 5 2.8 0 5 2.2 5 5 0-2.8 2.2-5 5-5z"/><path fill="#B24626" d="M135 125c0 5.5-4.5 10-10 10 5.5 0 10 4.5 10 10 0-5.5 4.5-10 10-10-5.5 0-10-4.5-10-10z"/></svg>
