<svg xmlns="http://www.w3.org/2000/svg" viewBox="0 0 220 220"><circle fill="#393D40" cx="110" cy="110" r="105.3"/><path fill="#393D40" d="M110 0c-60.8 0-110 49.2-110 110s49.2 110 110 110 110-49.2 110-110-49.2-110-110-110zm69.8 181.6l-2.6 2.5c-4.1 3.8-8.6 7.2-13.3 10.2-.7.4-1.4.9-2 1.3-3.2 2-6.6 3.7-10 5.3-1.7.8-3.4 1.5-5.2 2.2l-2.3.9c-1.5.6-3.1 1.1-4.6 1.6-1.6.5-3.1.9-4.7 1.3-2.4.6-4.8 1.1-7.3 1.6-5.7 1-11.7 1.6-17.7 1.6s-12-.5-17.7-1.6c-2.5-.4-4.9-1-7.3-1.6-1.6-.4-3.2-.9-4.7-1.3-1.6-.5-3.1-1-4.6-1.6l-4.5-1.8c-1-.4-2-.9-2.9-1.3-3.4-1.6-6.8-3.4-10-5.3-.7-.4-1.4-.8-2-1.3-4.7-3-9.2-6.5-13.3-10.2-.9-.8-1.7-1.6-2.6-2.5-13.7-13.3-23.5-30.5-27.8-49.8v-.1c-.5-2.3-.9-4.6-1.3-6.9v-.3l-.3-2.2v-.4l-.1-.5-.1-.5-.1-1.4-.1-.7-.1-1.2v-.9l-.1-.9-.1-1.6v-8.4c0-.5 0-1.1.1-1.6l.1-.9v-.9l.1-1.2.1-.7.1-1.4.1-.5.1-.5v-.4l.3-2.2v-.3c.3-2.3.8-4.6 1.3-6.9v-.1c.5-2.3 1.1-4.6 1.8-6.8 11.9-41.3 50.2-71.4 95.5-71.4s83.6 30.1 95.9 71.4c.7 2.2 1.3 4.5 1.8 6.8v.1c.5 2.3.9 4.6 1.3 6.9v.3l.3 2.2v.4l.1.5.1.5.1 1.4.1.7.1 1.2v.9l.1.9.1 1.6v8.4c0 .5 0 1.1-.1 1.6l-.1.9v.9l-.1 1.2-.1.7-.1 1.4-.1.5-.1.5v.4l-.3 2.2v.3c-.3 2.3-.8 4.6-1.3 6.9v.1c-.5 2.3-1.1 4.6-1.8 6.8-5 16.5-14 31.2-26.1 43z"/><path fill="#838582" d="M135 206.9c-2.4.6-4.8 1.1-7.3 1.6 2.5-.5 4.9-1 7.3-1.6zm-42.7 1.5c-2.5-.4-4.9-1-7.3-1.6 2.4.7 4.8 1.2 7.3 1.6zm-24.2-7.6c-3.4-1.6-6.8-3.4-10-5.3 3.3 2 6.6 3.8 10 5.3zm-12-6.6c-4.7-3-9.2-6.5-13.3-10.2 4.1 3.8 8.6 7.2 13.3 10.2zm105.8 1.3c-3.2 2-6.6 3.7-10 5.3 3.4-1.5 6.7-3.3 10-5.3zm15.3-11.5c-4.1 3.8-8.6 7.2-13.3 10.2 4.7-3 9.2-6.4 13.3-10.2zm-166.8-82.7l-.1 1.2.1-.7v-.5zm-.3 12.9c0 .5 0 1.1.1 1.6l-.1-1.2v-.4zm.2-11.3v.5-.2c-.1 0 0-.3 0-.3zm.3-3.7l-.1 1.4.1-.8c-.1 0 0-.6 0-.6zm-.4 5l-.1 1.6v-.4l.1-1.2zm196.9-18l.3 1.3.2.8c-.5-2.3-1.1-4.6-1.8-6.8.5 1.5.9 3.1 1.3 4.7zm-197.1 26.7v-2.9 2.9zm1-17.3l-.3 2.2.2-1.5.1-.7zm99-50.6c25.6 0 47.8 14.9 58.4 36.4h37.5c-12.3-41.3-50.6-71.4-95.9-71.4s-83.6 30.1-95.9 71.4h37.5c10.6-21.5 32.8-36.4 58.4-36.4zm48.1.7c-.1-.3-.4-.9-1-1.9-.5-.9-.8-1.6-1-2.2-.1-.6-.1-1.2 0-1.7s.4-1.1.8-1.7c.8-1.1 1.8-1.6 3-1.6s2.5.5 3.8 1.5c1.2.9 2.2 2 3 3.5l-2.7 1.7c-.7-1.3-1.5-2.2-2.2-2.8-.4-.3-.7-.4-1-.4-.3 0-.5.1-.7.3-.2.2-.2.5-.1.9s.5 1.1 1.2 2.4c.7 1.2 1 2.2 1 3s-.3 1.6-.8 2.4c-.5.7-1.2 1.2-1.9 1.5s-1.6.3-2.5.1c-.9-.2-1.8-.6-2.7-1.3-.8-.6-1.4-1.1-1.8-1.6s-.8-1.1-1.2-1.8l2-2.8c.4.7.8 1.4 1.3 2.1.5.6 1 1.2 1.6 1.6.5.3.9.5 1.2.5.3 0 .6-.1.8-.4.1-.2.2-.3.2-.5s-.2-.6-.3-.8zm-3.1-13.4l-1.4 2.8-4.1-2.1-1 2 3.8 2-1.4 2.8-3.8-2-1.2 2.4 4.1 2.1-1.4 2.8-7.5-3.9 6.5-12.7 7.4 3.8zm-21-8.7l-.3 7.5c-.1 1.7-.2 2.8-.4 3.4.2-.4.4-.9.8-1.6.3-.6.6-1.1.8-1.4l4-6.4 4.1 1.3-8.7 12.3-4.3-1.3-.2-15c0-.1 4.2 1.2 4.2 1.2zm-12.6-2.5l3.8.6-2.1 14.1-3.8-.6 2.1-14.1zm-15.8-.8l10.8.2-.1 3.2-3.5-.1-.2 11.1-3.9-.1.2-11.1-3.5-.1.2-3.1zm-14.2 5.2c.4-1.2 1-2.2 2-2.9s2.1-1.3 3.5-1.5c1.5-.2 3-.2 4.5.3l-.7 3.2c-.6-.2-1.1-.3-1.7-.4-.5-.1-1.1-.1-1.7 0-.9.1-1.6.6-1.9 1.5-.4.8-.5 1.9-.3 3.2.4 2.7 1.7 3.9 3.8 3.6.6-.1 1.2-.3 1.8-.6s1.1-.6 1.7-.9l.5 3.2c-1.1.7-2.4 1.2-3.9 1.4-2.1.3-3.9 0-5.2-1.1-1.3-1-2.2-2.7-2.6-5.1-.2-1.4-.2-2.7.2-3.9zm-6.4-1.7l1 2.9-4.4 1.5.7 2.1 4-1.4 1 2.9-4 1.4.9 2.5 4.4-1.5 1 3-8 2.8-4.6-13.5 8-2.7zm-17.9 7.5l5.3 9.8 4.8-2.6 1.5 2.7-8.2 4.4-6.8-12.6c0 .1 3.4-1.7 3.4-1.7zm-8.1 4.9l1.9 2.5-3.7 2.8 1.4 1.8 3.4-2.6 1.9 2.5-3.4 2.6 1.6 2.1 3.7-2.8 1.9 2.5-6.7 5-8.7-11.3c-.1 0 6.7-5.1 6.7-5.1zm-47.4 55.7l.2-.8.5-2.4.1-.3c-.5 2.3-.9 4.6-1.3 6.9v-.2c.2-1 .3-2.1.5-3.2zm-.9 6.2l-.1.5v-.2l.1-.3zm0 24.1l.3 2.2-.1-.7c0-.5-.1-1-.2-1.5zm1.1 6.7l-.2-.8c-.2-1.1-.4-2.1-.5-3.2v-.2c.3 2.3.8 4.6 1.3 6.9l-.1-.3-.5-2.4zm-1.6-12.3v.5-.3-.2zm158.2 22c-3.2 6.5-7.4 12.3-12.4 17.4l24.7 24.7-.9.8c12-11.7 21.1-26.5 26-43l-37.4.1zm-104.4 17.4c-5-5-9.3-10.9-12.4-17.4h-37.5c-.5-1.6-.9-3.2-1.3-4.8l-.3-1.3-.2-.8c4.3 19.3 14.1 36.5 27.8 49.8l-.9-.8 24.8-24.7zm-53.7-38.5l.1 1.2v-.6l-.1-.6zm.3 3.8l.1.5v-.3l-.1-.2zm-.2-1.9l.1 1.4-.1-.6c.1 0 0-.8 0-.8zm2.5-33.2c.4-1.6.8-3.2 1.3-4.8-.7 2.3-1.3 4.5-1.8 6.8l.2-.8c0 .1.3-1.2.3-1.2zm195.5 41.9l-.2.8-.5 2.4-.1.3c.5-2.3.9-4.6 1.3-6.9v.2c-.2 1-.3 2.1-.5 3.2zm.6-3.7l.3-2.2-.2 1.5-.1.7zm.3-2.5l.1-.5v.2c-.1-.1-.1.3-.1.3zm.1-1.1l.1-1.4-.1.8v.6zm-199.4-10.8v-2.9 2.9zm197.1 23.8c-.4 1.6-.8 3.2-1.3 4.8.7-2.2 1.3-4.5 1.8-6.8l-.2.8-.3 1.2zm2.9-26.7v2.9-2.9zm-.4 11.6l.1-1.2-.1.7v.5zm.4-8.7v2.9-2.9zm-.6-11.3l-.1-.5v.3l.1.2zm-1.2-7.6l.2.8c.2 1.1.4 2.1.5 3.2v.2c-.3-2.3-.8-4.6-1.3-6.9l.1.3.5 2.4zm1.4 9.5l-.1-1.4.1.6v.8zm-.3-2.8l-.3-2.2.1.7c0 .5.1 1 .2 1.5zm.4 4.7l-.1-1.2v.6l.1.6zm.1 13.3l.1-1.6v.4l-.1 1.2zm0-12.4v-.5.3.2zm-.1 13.7v-.5.2.3zm.2-11.3c0-.5 0-1.1-.1-1.6l.1 1.2v.4z"/><path fill="#585A5B" d="M156 156c-11.8 11.8-28 19-46 19s-34.2-7.3-46-19l-24.7 24.7.9.8 2.6 2.5c4.1 3.8 8.6 7.2 13.3 10.2.7.4 1.4.9 2 1.3 3.2 2 6.6 3.7 10 5.3l2.9 1.3 4.5 1.8s3.1 1.1 4.6 1.6c1.6.5 3.1.9 4.7 1.3 2.4.6 4.8 1.1 7.3 1.6 5.7 1 11.7 1.6 17.7 1.6s12-.5 17.7-1.6c2.5-.4 4.9-1 7.3-1.6 1.6-.4 3.2-.9 4.7-1.3 1.6-.5 3.1-1 4.6-1.6l2.3-.9c1.8-.7 3.5-1.4 5.2-2.2 3.4-1.6 6.8-3.4 10-5.3.7-.4 1.4-.8 2-1.3 4.7-3 9.2-6.5 13.3-10.2.9-.8 1.7-1.6 2.6-2.5l.9-.8-24.4-24.7zm-62.8 32.3c-.4 1.5-1.2 2.6-2.4 3.2-1.1.6-2.5.6-4.2.1l-1-.3-1.3 4.6-3.7-1.1 3.9-13.7 4.7 1.4c1.7.5 2.9 1.3 3.6 2.3.7.9.8 2.1.4 3.5zm11.6 11.2l-.5-2.7-4.6-.4-1 2.6-4.2-.4 5.9-13.9 5.1.5 3.4 14.7-4.1-.4zm15.4-.4l-3.8.4-1-11.1-3.5.3-.3-3.1 10.8-1 .3 3.1-3.5.3 1 11.1zm16.8-3.6l-1.6-5.6-4.3 1.2 1.6 5.6-3.7 1.1-4-13.7 3.7-1.1 1.5 5.1 4.3-1.2-1.5-5.1 3.7-1.1 4 13.7-3.7 1.1zm-48.7-10l-1-.3-.9 3.2.7.2c.6.2 1 .1 1.5-.1.4-.2.7-.6.9-1.2.2-.9-.1-1.6-1.2-1.8zm14.8 3.6c-.1-.8-.2-1.4-.2-1.8-.1.3-.3.9-.5 1.6l-1.6 4.4 3 .3-.4-2.4c0-.5-.2-1.2-.3-2.1zm-91.3-60.2l-.2-.8.2.8zm1.1 4.9c.4 1.6.8 3.2 1.3 4.8h37.5c-.8-1.6-1.5-3.1-2.1-4.8h-36.7zm157.6 0c-.6 1.6-1.3 3.2-2.1 4.8h37.5c.5-1.6.9-3.2 1.3-4.8h-36.7zm39-34l-.1-.6-.1-.5v-.2c.1.4.1.8.2 1.3zm-2.1 32.7l.2-.8v-.1l.1-.3-.3 1.2zm.8-3.6l.2-.8-.2.8zm-197.5-30.4v.2l-.1.5-.1.6c.1-.5.1-.9.2-1.3zm1.9-11l-.2.8v.1l-.1.3.3-1.2zm-2.5 26.2v.9-.9zm0-7.9v.8-.8zm.4 14.4l.1.6.1.5v.2c-.1-.4-.1-.8-.2-1.3zm-.2-18.3l-.1.7v.7l.1-1.4zm1.5-10.8l-.2.8.2-.8zm37.7-4.9c.6-1.6 1.3-3.2 2.1-4.8h-37.5c-.5 1.6-.9 3.2-1.3 4.8h36.7zm-38.4 8.9v.5l-.1.7c-.1 0 .1-1.2.1-1.2zm196.6-6.4l-.1-.3v-.1l-.2-.8.3 1.2zm2.2 17.6v-.9.9zm-.8-10l-.1-.7v-.5l.1 1.2zm-.7-4.4l-.2-.8.2.8zm-197.5 31.8l.1.7v.5l-.1-1.2zm1.4 7.6l.1.3v.1l.2.8-.3-1.2zm197.5-28.1v-.7l-.1-.7c0 .5 0 .9.1 1.4zm-199.6 13.6v.7l.1.7c0-.5 0-.9-.1-1.4zm198.7 8.1v-.5l.1-.7-.1 1.2zm.4-3.4v-.2l.1-.5.1-.6c-.1.5-.1.9-.2 1.3zm.6-7.3v-.8.8zm-.2 3.9l.1-.7v-.7l-.1 1.4zm-39.2-31.9h36.6c-.4-1.6-.8-3.2-1.3-4.8h-37.5c.9 1.6 1.5 3.2 2.2 4.8z"/><path fill="#aaa" d="M11.1 124.9l.5 3.2.2.8.5 2.4.3 1.2.3 1.3h36.7c.6 1.6 1.3 3.2 2.1 4.8 3.1 6.4 7.3 12.3 12.3 17.4 11.8 11.8 28 19 46 19s34.2-7.3 46-19c5-5 9.3-10.9 12.4-17.4.8-1.6 1.5-3.1 2.1-4.8h36.7l.3-1.3.3-1.2.5-2.4.2-.8c.2-1.1.4-2.1.5-3.2l.2-1.2.2-1.5v-.7l.1-1.3.1-.8.1-.7v-.6l.1-1.3v-.2l.1-.9.1-1.2v-9l-.1-1.2-.1-.9v-.2l-.1-1.3v-.6l-.1-.7-.1-.8-.1-1.3v-.7l-.2-1.5-.2-1.2-.5-3.2-.2-.8-.5-2.4-.3-1.2-.3-1.3h-36.7c-.6-1.6-1.3-3.2-2.1-4.8-10.6-21.5-32.8-36.4-58.4-36.4s-47.8 14.9-58.4 36.4c-.8 1.6-1.5 3.1-2.1 4.8h-36.6l-.3 1.3-.3 1.2-.5 2.4-.2.8c-.2 1.1-.4 2.1-.5 3.2l-.2 1.2-.2 1.5v.7l-.1 1.3-.1.8-.1.7v.6l-.1 1.3v.2l-.1.9-.1 1.2v9l.1 1.2.1.9v.2l.1 1.3v.6l.1.7.1.8.1 1.3v.7l.2 1.5c.1 0 .2 1.2.2 1.2zm172-6.4c0-.2.1-.4.2-.6l7.9-7.9-7.9-7.9c-.2-.2-.2-.4-.2-.6v-3.3c0-.2.1-.4.2-.6.2-.2.4-.2.6-.2.2 0 .4.1.6.2l11.8 11.8c.3.3.3.8 0 1.2l-11.8 11.8c-.2.2-.4.2-.6.2-.2 0-.4-.1-.6-.2-.2-.2-.2-.4-.2-.6v-3.3zm-73.1-63.5c30.4 0 55 24.6 55 55s-24.6 55-55 55-55-24.6-55-55 24.6-55 55-55zm-86.3 54.4l11.8-11.8c.2-.2.4-.2.6-.2.2 0 .4.1.6.2.2.2.2.4.2.6v3.3c0 .2-.1.4-.2.6l-7.9 7.9 7.9 7.9c.2.2.2.4.2.6v3.3c0 .2-.1.4-.2.6-.2.2-.4.2-.6.2-.2 0-.4-.1-.6-.2l-11.8-11.8c-.3-.3-.3-.9 0-1.2z"/><path fill="#393D40" d="M110 165c30.4 0 55-24.6 55-55s-24.6-55-55-55-55 24.6-55 55 24.6 55 55 55zm-22.5-27.6l-12.5 5v-10h-10v-5h5v-25h-5v-5h82.5c4.1 0 7.5 3.4 7.5 7.5v20c0 4.1-3.4 7.5-7.5 7.5h-47.5v10l-12.5-5z"/><path fill="#838582" d="M183.3 122.4c.2.2.4.2.6.2.2 0 .4-.1.6-.2l11.8-11.8c.3-.3.3-.8 0-1.2l-11.8-11.8c-.2-.2-.4-.2-.6-.2-.2 0-.4.1-.6.2-.2.2-.2.4-.2.6v3.3c0 .2.1.4.2.6l7.9 7.9-7.9 7.9c-.2.2-.2.4-.2.6v3.3c0 .2.1.4.2.6zm-159.6-11.8l11.8 11.8c.2.2.4.2.6.2.2 0 .4-.1.6-.2.2-.2.2-.4.2-.6v-3.3c0-.2-.1-.4-.2-.6l-7.9-7.9 7.9-7.9c.2-.2.2-.4.2-.6v-3.3c0-.2-.1-.4-.2-.6-.2-.2-.4-.2-.6-.2-.2 0-.4.1-.6.2l-11.8 11.8c-.3.3-.3.9 0 1.2z"/><path fill="#EAE8E6" d="M67.7 47.5l-1.9-2.5-3.7 2.8-1.7-2.1 3.4-2.6-1.8-2.5-3.4 2.6-1.4-1.8 3.7-2.8-1.9-2.4-6.8 5.1 8.8 11.3zm11-6.3l-1.4-2.7-4.9 2.6-5.3-9.8-3.4 1.8 6.8 12.6zm11-3.9l-1.1-3-4.3 1.5-.9-2.5 4-1.4-1-3-4 1.4-.8-2.1 4.4-1.5-1-2.9-8 2.7 4.6 13.5zm4.1-2.7c1.3 1 3.1 1.4 5.2 1.1 1.5-.2 2.8-.7 3.9-1.4l-.5-3.2-1.7.9c-.6.3-1.1.5-1.8.6-2.1.3-3.3-.9-3.8-3.6-.2-1.3-.1-2.4.3-3.2.4-.8 1-1.3 1.9-1.5.6-.1 1.2-.1 1.7 0s1.1.2 1.7.4l.7-3.2c-1.5-.4-3-.5-4.5-.3-1.4.2-2.6.7-3.5 1.5s-1.6 1.7-2 2.9-.4 2.5-.2 4c.4 2.2 1.2 3.9 2.6 5zm15.1 0l3.8.1.2-11.1h3.5v-3.1l-10.8-.2v3.1l3.5.1zm14.292 1.114l-3.857-.573 2.102-14.144 3.857.573zm11.208 2.886l8.7-12.3-4.1-1.3-4 6.4c-.2.3-.5.8-.8 1.4-.3.6-.6 1.1-.8 1.6.1-.6.3-1.8.4-3.4l.3-7.5-4.1-1.3.2 15 4.2 1.4zm14.1 6.4l1.4-2.8-4.1-2.1 1.2-2.4 3.8 2 1.5-2.8-3.8-1.9 1-2 4.1 2.1 1.4-2.8-7.5-3.8-6.6 12.6zm8.8 2.2c-.3 0-.7-.2-1.2-.5-.5-.4-1.1-.9-1.6-1.6-.5-.6-1-1.3-1.3-2.1l-2 2.8c.4.7.8 1.3 1.2 1.8s1 1 1.8 1.6c.9.7 1.8 1.1 2.7 1.3.9.2 1.7.2 2.5-.1s1.4-.8 1.9-1.5c.6-.8.9-1.6.8-2.4s-.3-1.8-1-3-1.1-2-1.2-2.4-.1-.6.1-.9c.2-.2.4-.3.7-.3s.6.1 1 .4c.8.6 1.5 1.5 2.2 2.8l2.7-1.7c-.8-1.5-1.8-2.6-3-3.5-1.3-1-2.6-1.5-3.8-1.5-1.2 0-2.2.6-3 1.6-.4.6-.7 1.1-.8 1.7-.1.5-.1 1.1 0 1.7.1.6.5 1.3 1 2.2.6 1 .9 1.6 1 1.9s.2.5.2.7-.1.4-.2.5c-.1.4-.3.5-.7.5z"/><path fill="#D9D7D5" d="M89.3 182.5l-4.7-1.4-3.9 13.7 3.7 1.1 1.3-4.6 1 .3c1.7.5 3.1.4 4.2-.1 1.1-.6 1.9-1.6 2.4-3.2.4-1.4.3-2.6-.4-3.6s-1.9-1.7-3.6-2.2zm.2 4.8c-.2.6-.4.9-.9 1.2-.4.2-.9.2-1.5.1l-.7-.2.9-3.2 1 .3c1.1.2 1.4.9 1.2 1.8zm11-2.5l-5.9 13.9 4.2.4 1-2.6 4.6.4.5 2.7 4.2.4-3.4-14.7c-.1-.1-5.2-.5-5.2-.5zm.3 8.5c.8-2.2 1.3-3.6 1.6-4.4.2-.7.4-1.3.5-1.6 0 .4.1 1 .2 1.8s.2 1.5.3 2.1l.4 2.4-3-.3zm21.5-8.7l-10.7.9.2 3.2 3.5-.3 1 11 3.9-.3-1-11.1 3.4-.3zm10.8-2.8l1.4 5.1-4.3 1.2-1.5-5.1-3.7 1.1 4 13.7 3.7-1-1.6-5.6 4.3-1.3 1.6 5.6 3.7-1-3.9-13.8z"/><path fill="#585A5B" d="M150 104.9v20c0 4.1-3.4 7.5-7.5 7.5h5c4.1 0 7.5-3.4 7.5-7.5v-20c0-4.1-3.4-7.5-7.5-7.5h-5c4.1 0 7.5 3.3 7.5 7.5zm-12.5 0v20c0 4.1-3.4 7.5-7.5 7.5h10c4.1 0 7.5-3.4 7.5-7.5v-20c0-4.1-3.4-7.5-7.5-7.5h-10c4.1 0 7.5 3.3 7.5 7.5zm-7.5 0v20c0 4.1-3.4 7.5-7.5 7.5h5c4.1 0 7.5-3.4 7.5-7.5v-20c0-4.1-3.4-7.5-7.5-7.5h-5c4.1 0 7.5 3.3 7.5 7.5z"/><path fill="#838582" d="M147.5 104.9v20c0 4.1-3.4 7.5-7.5 7.5h2.5c4.1 0 7.5-3.4 7.5-7.5v-20c0-4.1-3.4-7.5-7.5-7.5h-2.5c4.1 0 7.5 3.3 7.5 7.5zm-12.5 0v20c0 4.1-3.4 7.5-7.5 7.5h2.5c4.1 0 7.5-3.4 7.5-7.5v-20c0-4.1-3.4-7.5-7.5-7.5h-2.5c4.1 0 7.5 3.3 7.5 7.5z"/><path fill="#aaa" d="M122.5 102.4c1.4 0 2.5 1.1 2.5 2.5v20c0 1.4-1.1 2.5-2.5 2.5h-22.5v5h22.5c4.1 0 7.5-3.4 7.5-7.5v-20c0-4.1-3.4-7.5-7.5-7.5h-57.5v5h57.5z"/><path fill="#EAE8E6" d="M75 122.4c0-2.8 2.2-5 5-5h25v10h17.5c1.4 0 2.5-1.1 2.5-2.5v-17.4h-55v19.9h5v-5z"/><path fill="#D9D7D5" d="M105 117.4c-2.8 0-5 2.2-5 5v5h5v-10z"/><path fill="#aaa" d="M70 127.4h-5v5h10v-5z"/><path fill="#585A5B" d="M100 132.4v-10c0-2.8 2.2-5 5-5h-25c-2.8 0-5 2.2-5 5v20l12.5-5 12.5 5v-10zm-16.9-5.2h3.4l1-3.2 1 3.2h3.4l-2.7 2 1 3.2-2.7-2-2.7 2 1-3.2-2.7-2z"/><path fill="#aaa" d="M84.8 132.4l2.7-2 2.7 2-1-3.2 2.7-2h-3.4l-1-3.2-1 3.2h-3.4l2.7 2z"/><path fill="#D9D7D5" d="M125 107.5v-2.6c0-1.4-1.1-2.5-2.5-2.5h-52.5v5.1h55z"/></svg>